<?xml version="1.0" encoding="utf-8" standalone="no"?>
<!DOCTYPE svg PUBLIC "-//W3C//DTD SVG 1.1//EN"
  "http://www.w3.org/Graphics/SVG/1.1/DTD/svg11.dtd">
<!-- Created with matplotlib (http://matplotlib.org/) -->
<svg height="279.59625pt" version="1.1" viewBox="0 0 424.792187 279.59625" width="424.792187pt" xmlns="http://www.w3.org/2000/svg" xmlns:xlink="http://www.w3.org/1999/xlink">
 <defs>
  <style type="text/css">
*{stroke-linecap:butt;stroke-linejoin:round;}
  </style>
 </defs>
 <g id="figure_1">
  <g id="patch_1">
   <path d="M 0 279.59625 
L 424.792187 279.59625 
L 424.792187 0 
L 0 0 
z
" style="fill:#ffffff;"/>
  </g>
  <g id="axes_1">
   <g id="patch_2">
    <path d="M 28.942188 117.118125 
L 414.092187 117.118125 
L 414.092187 22.318125 
L 28.942188 22.318125 
z
" style="fill:#ffffff;"/>
   </g>
   <g id="matplotlib.axis_1">
    <g id="xtick_1">
     <g id="line2d_1">
      <defs>
       <path d="M 0 0 
L 0 3.5 
" id="m561a8f756b" style="stroke:#000000;stroke-width:0.8;"/>
      </defs>
      <g>
       <use style="stroke:#000000;stroke-width:0.8;" x="46.449006" xlink:href="#m561a8f756b" y="117.118125"/>
      </g>
     </g>
     <g id="text_1">
      <!-- 0 -->
      <defs>
       <path d="M 31.78125 66.40625 
Q 24.171875 66.40625 20.328125 58.90625 
Q 16.5 51.421875 16.5 36.375 
Q 16.5 21.390625 20.328125 13.890625 
Q 24.171875 6.390625 31.78125 6.390625 
Q 39.453125 6.390625 43.28125 13.890625 
Q 47.125 21.390625 47.125 36.375 
Q 47.125 51.421875 43.28125 58.90625 
Q 39.453125 66.40625 31.78125 66.40625 
z
M 31.78125 74.21875 
Q 44.046875 74.21875 50.515625 64.515625 
Q 56.984375 54.828125 56.984375 36.375 
Q 56.984375 17.96875 50.515625 8.265625 
Q 44.046875 -1.421875 31.78125 -1.421875 
Q 19.53125 -1.421875 13.0625 8.265625 
Q 6.59375 17.96875 6.59375 36.375 
Q 6.59375 54.828125 13.0625 64.515625 
Q 19.53125 74.21875 31.78125 74.21875 
z
" id="DejaVuSans-30"/>
      </defs>
      <g transform="translate(43.267756 131.716563)scale(0.1 -0.1)">
       <use xlink:href="#DejaVuSans-30"/>
      </g>
     </g>
    </g>
    <g id="xtick_2">
     <g id="line2d_2">
      <g>
       <use style="stroke:#000000;stroke-width:0.8;" x="116.546376" xlink:href="#m561a8f756b" y="117.118125"/>
      </g>
     </g>
     <g id="text_2">
      <!-- 200 -->
      <defs>
       <path d="M 19.1875 8.296875 
L 53.609375 8.296875 
L 53.609375 0 
L 7.328125 0 
L 7.328125 8.296875 
Q 12.9375 14.109375 22.625 23.890625 
Q 32.328125 33.6875 34.8125 36.53125 
Q 39.546875 41.84375 41.421875 45.53125 
Q 43.3125 49.21875 43.3125 52.78125 
Q 43.3125 58.59375 39.234375 62.25 
Q 35.15625 65.921875 28.609375 65.921875 
Q 23.96875 65.921875 18.8125 64.3125 
Q 13.671875 62.703125 7.8125 59.421875 
L 7.8125 69.390625 
Q 13.765625 71.78125 18.9375 73 
Q 24.125 74.21875 28.421875 74.21875 
Q 39.75 74.21875 46.484375 68.546875 
Q 53.21875 62.890625 53.21875 53.421875 
Q 53.21875 48.921875 51.53125 44.890625 
Q 49.859375 40.875 45.40625 35.40625 
Q 44.1875 33.984375 37.640625 27.21875 
Q 31.109375 20.453125 19.1875 8.296875 
z
" id="DejaVuSans-32"/>
      </defs>
      <g transform="translate(107.002626 131.716563)scale(0.1 -0.1)">
       <use xlink:href="#DejaVuSans-32"/>
       <use x="63.623047" xlink:href="#DejaVuSans-30"/>
       <use x="127.246094" xlink:href="#DejaVuSans-30"/>
      </g>
     </g>
    </g>
    <g id="xtick_3">
     <g id="line2d_3">
      <g>
       <use style="stroke:#000000;stroke-width:0.8;" x="186.643746" xlink:href="#m561a8f756b" y="117.118125"/>
      </g>
     </g>
     <g id="text_3">
      <!-- 400 -->
      <defs>
       <path d="M 37.796875 64.3125 
L 12.890625 25.390625 
L 37.796875 25.390625 
z
M 35.203125 72.90625 
L 47.609375 72.90625 
L 47.609375 25.390625 
L 58.015625 25.390625 
L 58.015625 17.1875 
L 47.609375 17.1875 
L 47.609375 0 
L 37.796875 0 
L 37.796875 17.1875 
L 4.890625 17.1875 
L 4.890625 26.703125 
z
" id="DejaVuSans-34"/>
      </defs>
      <g transform="translate(177.099996 131.716563)scale(0.1 -0.1)">
       <use xlink:href="#DejaVuSans-34"/>
       <use x="63.623047" xlink:href="#DejaVuSans-30"/>
       <use x="127.246094" xlink:href="#DejaVuSans-30"/>
      </g>
     </g>
    </g>
    <g id="xtick_4">
     <g id="line2d_4">
      <g>
       <use style="stroke:#000000;stroke-width:0.8;" x="256.741116" xlink:href="#m561a8f756b" y="117.118125"/>
      </g>
     </g>
     <g id="text_4">
      <!-- 600 -->
      <defs>
       <path d="M 33.015625 40.375 
Q 26.375 40.375 22.484375 35.828125 
Q 18.609375 31.296875 18.609375 23.390625 
Q 18.609375 15.53125 22.484375 10.953125 
Q 26.375 6.390625 33.015625 6.390625 
Q 39.65625 6.390625 43.53125 10.953125 
Q 47.40625 15.53125 47.40625 23.390625 
Q 47.40625 31.296875 43.53125 35.828125 
Q 39.65625 40.375 33.015625 40.375 
z
M 52.59375 71.296875 
L 52.59375 62.3125 
Q 48.875 64.0625 45.09375 64.984375 
Q 41.3125 65.921875 37.59375 65.921875 
Q 27.828125 65.921875 22.671875 59.328125 
Q 17.53125 52.734375 16.796875 39.40625 
Q 19.671875 43.65625 24.015625 45.921875 
Q 28.375 48.1875 33.59375 48.1875 
Q 44.578125 48.1875 50.953125 41.515625 
Q 57.328125 34.859375 57.328125 23.390625 
Q 57.328125 12.15625 50.6875 5.359375 
Q 44.046875 -1.421875 33.015625 -1.421875 
Q 20.359375 -1.421875 13.671875 8.265625 
Q 6.984375 17.96875 6.984375 36.375 
Q 6.984375 53.65625 15.1875 63.9375 
Q 23.390625 74.21875 37.203125 74.21875 
Q 40.921875 74.21875 44.703125 73.484375 
Q 48.484375 72.75 52.59375 71.296875 
z
" id="DejaVuSans-36"/>
      </defs>
      <g transform="translate(247.197366 131.716563)scale(0.1 -0.1)">
       <use xlink:href="#DejaVuSans-36"/>
       <use x="63.623047" xlink:href="#DejaVuSans-30"/>
       <use x="127.246094" xlink:href="#DejaVuSans-30"/>
      </g>
     </g>
    </g>
    <g id="xtick_5">
     <g id="line2d_5">
      <g>
       <use style="stroke:#000000;stroke-width:0.8;" x="326.838486" xlink:href="#m561a8f756b" y="117.118125"/>
      </g>
     </g>
     <g id="text_5">
      <!-- 800 -->
      <defs>
       <path d="M 31.78125 34.625 
Q 24.75 34.625 20.71875 30.859375 
Q 16.703125 27.09375 16.703125 20.515625 
Q 16.703125 13.921875 20.71875 10.15625 
Q 24.75 6.390625 31.78125 6.390625 
Q 38.8125 6.390625 42.859375 10.171875 
Q 46.921875 13.96875 46.921875 20.515625 
Q 46.921875 27.09375 42.890625 30.859375 
Q 38.875 34.625 31.78125 34.625 
z
M 21.921875 38.8125 
Q 15.578125 40.375 12.03125 44.71875 
Q 8.5 49.078125 8.5 55.328125 
Q 8.5 64.0625 14.71875 69.140625 
Q 20.953125 74.21875 31.78125 74.21875 
Q 42.671875 74.21875 48.875 69.140625 
Q 55.078125 64.0625 55.078125 55.328125 
Q 55.078125 49.078125 51.53125 44.71875 
Q 48 40.375 41.703125 38.8125 
Q 48.828125 37.15625 52.796875 32.3125 
Q 56.78125 27.484375 56.78125 20.515625 
Q 56.78125 9.90625 50.3125 4.234375 
Q 43.84375 -1.421875 31.78125 -1.421875 
Q 19.734375 -1.421875 13.25 4.234375 
Q 6.78125 9.90625 6.78125 20.515625 
Q 6.78125 27.484375 10.78125 32.3125 
Q 14.796875 37.15625 21.921875 38.8125 
z
M 18.3125 54.390625 
Q 18.3125 48.734375 21.84375 45.5625 
Q 25.390625 42.390625 31.78125 42.390625 
Q 38.140625 42.390625 41.71875 45.5625 
Q 45.3125 48.734375 45.3125 54.390625 
Q 45.3125 60.0625 41.71875 63.234375 
Q 38.140625 66.40625 31.78125 66.40625 
Q 25.390625 66.40625 21.84375 63.234375 
Q 18.3125 60.0625 18.3125 54.390625 
z
" id="DejaVuSans-38"/>
      </defs>
      <g transform="translate(317.294736 131.716563)scale(0.1 -0.1)">
       <use xlink:href="#DejaVuSans-38"/>
       <use x="63.623047" xlink:href="#DejaVuSans-30"/>
       <use x="127.246094" xlink:href="#DejaVuSans-30"/>
      </g>
     </g>
    </g>
    <g id="xtick_6">
     <g id="line2d_6">
      <g>
       <use style="stroke:#000000;stroke-width:0.8;" x="396.935856" xlink:href="#m561a8f756b" y="117.118125"/>
      </g>
     </g>
     <g id="text_6">
      <!-- 1000 -->
      <defs>
       <path d="M 12.40625 8.296875 
L 28.515625 8.296875 
L 28.515625 63.921875 
L 10.984375 60.40625 
L 10.984375 69.390625 
L 28.421875 72.90625 
L 38.28125 72.90625 
L 38.28125 8.296875 
L 54.390625 8.296875 
L 54.390625 0 
L 12.40625 0 
z
" id="DejaVuSans-31"/>
      </defs>
      <g transform="translate(384.210856 131.716563)scale(0.1 -0.1)">
       <use xlink:href="#DejaVuSans-31"/>
       <use x="63.623047" xlink:href="#DejaVuSans-30"/>
       <use x="127.246094" xlink:href="#DejaVuSans-30"/>
       <use x="190.869141" xlink:href="#DejaVuSans-30"/>
      </g>
     </g>
    </g>
   </g>
   <g id="matplotlib.axis_2">
    <g id="ytick_1">
     <g id="line2d_7">
      <defs>
       <path d="M 0 0 
L -3.5 0 
" id="m6464c7fce9" style="stroke:#000000;stroke-width:0.8;"/>
      </defs>
      <g>
       <use style="stroke:#000000;stroke-width:0.8;" x="28.942188" xlink:href="#m6464c7fce9" y="112.809045"/>
      </g>
     </g>
     <g id="text_7">
      <!-- −1 -->
      <defs>
       <path d="M 10.59375 35.5 
L 73.1875 35.5 
L 73.1875 27.203125 
L 10.59375 27.203125 
z
" id="DejaVuSans-2212"/>
      </defs>
      <g transform="translate(7.2 116.608264)scale(0.1 -0.1)">
       <use xlink:href="#DejaVuSans-2212"/>
       <use x="83.789062" xlink:href="#DejaVuSans-31"/>
      </g>
     </g>
    </g>
    <g id="ytick_2">
     <g id="line2d_8">
      <g>
       <use style="stroke:#000000;stroke-width:0.8;" x="28.942188" xlink:href="#m6464c7fce9" y="69.718081"/>
      </g>
     </g>
     <g id="text_8">
      <!-- 0 -->
      <g transform="translate(15.579688 73.5173)scale(0.1 -0.1)">
       <use xlink:href="#DejaVuSans-30"/>
      </g>
     </g>
    </g>
    <g id="ytick_3">
     <g id="line2d_9">
      <g>
       <use style="stroke:#000000;stroke-width:0.8;" x="28.942188" xlink:href="#m6464c7fce9" y="26.627118"/>
      </g>
     </g>
     <g id="text_9">
      <!-- 1 -->
      <g transform="translate(15.579688 30.426336)scale(0.1 -0.1)">
       <use xlink:href="#DejaVuSans-31"/>
      </g>
     </g>
    </g>
   </g>
   <g id="line2d_10">
    <path clip-path="url(#pf9702dc24c)" d="M 46.449006 69.718081 
L 48.902414 51.409736 
L 50.304361 42.302936 
L 51.355822 36.570777 
L 52.407282 32.007573 
L 53.108256 29.696205 
L 53.80923 28.013149 
L 54.510203 26.98483 
L 54.86069 26.721651 
L 55.211177 26.627391 
L 55.561664 26.70242 
L 55.912151 26.946443 
L 56.613124 27.936978 
L 57.314098 29.583445 
L 58.015072 31.859996 
L 59.066532 36.375477 
L 60.117993 42.066802 
L 61.51994 51.132317 
L 63.622861 66.712208 
L 66.777243 90.164565 
L 68.17919 98.937251 
L 69.230651 104.343349 
L 70.282112 108.528369 
L 70.983085 110.565184 
L 71.684059 111.96073 
L 72.385033 112.693098 
L 72.735519 112.806585 
L 73.086006 112.750791 
L 73.436493 112.525936 
L 74.137467 111.573235 
L 74.838441 109.96344 
L 75.539414 107.721823 
L 76.590875 103.254292 
L 77.642335 97.604091 
L 79.044283 88.580321 
L 81.147204 73.030099 
L 84.301586 49.542328 
L 85.703533 40.725271 
L 86.754993 35.276416 
L 87.806454 31.042164 
L 88.507428 28.96978 
L 89.208401 27.537114 
L 89.909375 26.766658 
L 90.259862 26.633951 
L 90.610349 26.670507 
L 90.960836 26.876183 
L 91.311323 27.250171 
L 92.012296 28.496549 
L 92.71327 30.390074 
L 93.414244 32.901019 
L 94.465704 37.736368 
L 95.517165 43.699567 
L 96.919112 53.036642 
L 99.022033 68.797238 
L 101.825928 89.622081 
L 103.227875 98.483061 
L 104.279336 103.974396 
L 105.330797 108.257666 
L 106.03177 110.365513 
L 106.732744 111.835225 
L 107.433718 112.64373 
L 107.784205 112.795652 
L 108.134691 112.778335 
L 108.485178 112.591849 
L 108.835665 112.236926 
L 109.536639 111.028003 
L 110.237612 109.170545 
L 110.938586 106.693713 
L 111.990047 101.90471 
L 113.041507 95.98063 
L 114.443455 86.682131 
L 116.546376 70.9458 
L 119.350271 50.086846 
L 120.752218 41.182392 
L 121.803679 35.648855 
L 122.855139 31.316786 
L 123.556113 29.173582 
L 124.257086 27.666897 
L 124.95806 26.820384 
L 125.308547 26.649257 
L 125.659034 26.647333 
L 126.009521 26.81462 
L 126.360008 27.15046 
L 127.060981 28.321867 
L 127.761955 30.143163 
L 128.462929 32.585756 
L 129.514389 37.328171 
L 130.56585 43.212831 
L 131.967797 52.472282 
L 134.070718 68.18355 
L 136.874613 89.075556 
L 138.276561 98.023032 
L 139.328021 103.59849 
L 140.379482 107.979139 
L 141.080455 110.15759 
L 141.781429 111.701171 
L 142.482403 112.585649 
L 142.83289 112.775974 
L 143.183376 112.797138 
L 143.533863 112.64906 
L 143.88435 112.332319 
L 144.585324 111.198488 
L 145.286298 109.413445 
L 145.987271 107.005216 
L 147.038732 102.30963 
L 148.090192 96.464688 
L 149.49214 87.244755 
L 151.595061 71.559347 
L 154.398956 50.635349 
L 155.800903 41.645305 
L 156.852364 36.028209 
L 157.903824 31.599203 
L 158.604798 29.385615 
L 159.305772 27.805216 
L 160.006745 26.882818 
L 160.357232 26.673305 
L 160.707719 26.632901 
L 161.058206 26.761765 
L 161.408693 27.05939 
L 162.109666 28.155588 
L 162.81064 29.904286 
L 163.511614 32.27803 
L 164.563074 36.926548 
L 165.614535 42.731476 
L 167.016482 51.911422 
L 169.119403 67.570174 
L 171.923298 88.525102 
L 173.325246 97.557258 
L 174.376706 103.215707 
L 175.428167 107.692846 
L 176.12914 109.941459 
L 176.830114 111.558595 
L 177.531088 112.518866 
L 177.881575 112.747556 
L 178.232061 112.807197 
L 178.582548 112.697555 
L 178.933035 112.419062 
L 179.634009 111.360553 
L 180.334983 109.648288 
L 181.035956 107.309149 
L 182.087417 102.707935 
L 183.138877 96.943317 
L 184.540825 87.803821 
L 186.643746 72.172521 
L 189.447641 51.187726 
L 190.849588 42.113917 
L 191.901049 36.414402 
L 192.952509 31.889358 
L 193.653483 29.605834 
L 194.354457 27.952043 
L 195.05543 26.953947 
L 195.405917 26.706091 
L 195.756404 26.627216 
L 196.106891 26.71763 
L 196.457378 26.976979 
L 197.158351 27.997746 
L 197.859325 29.67349 
L 198.560299 31.977904 
L 199.611759 36.531582 
L 200.66322 42.255598 
L 202.065167 51.354178 
L 204.168088 66.957234 
L 206.971983 87.970831 
L 208.373931 97.085832 
L 209.425391 102.826124 
L 210.476852 107.398844 
L 211.177825 109.717162 
L 211.878799 111.407525 
L 212.579773 112.443395 
L 212.93026 112.710403 
L 213.280747 112.808509 
L 213.631233 112.737327 
L 213.98172 112.497136 
L 214.682694 111.514164 
L 215.383668 109.875025 
L 216.084641 107.605452 
L 217.136102 103.099542 
L 218.187562 97.416419 
L 219.58951 88.359217 
L 221.692431 72.785197 
L 224.846813 49.325661 
L 226.24876 40.544065 
L 227.300221 35.129394 
L 228.351681 30.93451 
L 229.052655 28.890573 
L 229.753628 27.487597 
L 230.454602 26.747609 
L 230.805089 26.630277 
L 231.155576 26.682224 
L 231.506063 26.903244 
L 231.85655 27.29247 
L 232.557523 28.568767 
L 233.258497 30.491076 
L 233.959471 33.029221 
L 235.010931 37.901469 
L 236.062392 43.895746 
L 237.464339 53.26334 
L 239.917747 71.743344 
L 242.371155 89.839566 
L 243.773103 98.665443 
L 244.824563 104.122816 
L 245.876024 108.366889 
L 246.576997 110.446374 
L 247.277971 111.886455 
L 247.978945 112.664524 
L 248.329432 112.801074 
L 248.679918 112.768366 
L 249.030405 112.566527 
L 249.380892 112.196351 
L 250.081866 110.957459 
L 250.78284 109.07114 
L 251.483813 106.567007 
L 252.535274 101.740908 
L 253.586734 95.785508 
L 254.988682 86.456111 
L 257.091603 70.700304 
L 259.895498 49.868554 
L 261.297445 40.998843 
L 262.348906 35.499045 
L 263.400366 31.205998 
L 264.10134 29.091072 
L 264.802314 27.613958 
L 265.503287 26.797848 
L 265.853774 26.642085 
L 266.204261 26.655554 
L 266.554748 26.838201 
L 266.905235 27.189308 
L 267.606208 28.390733 
L 268.307182 30.240966 
L 269.008156 32.71096 
L 270.059616 37.490665 
L 271.111077 43.406886 
L 272.513024 52.697612 
L 274.615945 68.428995 
L 277.41984 89.294644 
L 278.821788 98.207738 
L 279.873248 103.749682 
L 280.924709 108.091485 
L 281.625682 110.241747 
L 282.326656 111.755817 
L 283.02763 112.609927 
L 283.378117 112.784894 
L 283.728603 112.790666 
L 284.07909 112.62722 
L 284.429577 112.295199 
L 285.130551 111.131302 
L 285.831525 109.31725 
L 286.532498 106.881519 
L 287.583959 102.148451 
L 288.635419 96.271711 
L 290.037367 87.020126 
L 292.140288 71.313966 
L 294.944183 50.415477 
L 296.34613 41.459451 
L 297.397591 35.875642 
L 298.449051 31.485304 
L 299.150025 29.299817 
L 299.850999 27.748866 
L 300.551972 26.8568 
L 300.902459 26.662637 
L 301.252946 26.637625 
L 301.603433 26.781861 
L 301.95392 27.09478 
L 302.654893 28.221089 
L 303.355867 29.998869 
L 304.056841 32.400212 
L 305.108301 37.086403 
L 306.159762 42.923366 
L 307.561709 52.135339 
L 309.66463 67.815479 
L 312.468525 88.745748 
L 313.870473 97.744251 
L 314.921933 103.36964 
L 315.973394 107.808291 
L 316.674367 110.028893 
L 317.375341 111.616646 
L 318.076315 112.546623 
L 318.426802 112.759972 
L 318.777289 112.804223 
L 319.127775 112.679204 
L 319.478262 112.385404 
L 320.179236 111.296739 
L 320.88021 109.555321 
L 321.581183 107.188488 
L 322.632644 102.549412 
L 323.684104 96.752523 
L 325.086052 87.580629 
L 327.188973 71.927304 
L 329.992868 50.966317 
L 331.394815 41.925795 
L 332.446276 36.259109 
L 333.497736 31.772371 
L 334.19871 29.516767 
L 334.899684 27.892293 
L 335.600657 26.924453 
L 335.951144 26.691929 
L 336.301631 26.628441 
L 336.652118 26.734237 
L 337.002605 27.008903 
L 337.703578 28.059868 
L 338.404552 29.764835 
L 339.105526 32.097039 
L 340.156986 36.688765 
L 341.208447 42.445285 
L 342.610394 51.576634 
L 344.713315 67.20235 
L 347.51721 88.19299 
L 348.919158 97.275074 
L 349.970618 102.982768 
L 351.022079 107.517366 
L 351.723052 109.807858 
L 352.424026 111.46897 
L 353.125 112.474625 
L 353.475487 112.726312 
L 353.825974 112.809034 
L 354.17646 112.722466 
L 354.526947 112.466948 
L 355.227921 111.453736 
L 355.928895 109.785306 
L 356.629868 107.48785 
L 357.681329 102.943708 
L 358.732789 97.227847 
L 360.134737 88.137506 
L 362.237658 72.540194 
L 365.041553 51.520965 
L 366.4435 42.39778 
L 367.494961 36.649368 
L 368.546421 32.067141 
L 369.247395 29.741877 
L 369.948369 28.04421 
L 370.649342 27.000792 
L 370.999829 26.729955 
L 371.350316 26.628003 
L 371.700803 26.695339 
L 372.05129 26.931696 
L 372.752263 27.907103 
L 373.453237 29.538911 
L 374.154211 31.801502 
L 375.205671 36.297831 
L 376.257132 41.972741 
L 377.659079 51.021613 
L 379.762 66.589731 
L 382.916382 90.056397 
L 384.31833 98.846884 
L 385.36979 104.270118 
L 386.421251 108.474857 
L 387.122224 110.525912 
L 387.823198 111.936314 
L 388.524172 112.683922 
L 388.874659 112.805098 
L 389.225145 112.756999 
L 389.575632 112.539814 
L 389.926119 112.154396 
L 390.627093 110.885576 
L 391.328067 108.970456 
L 392.02904 106.439104 
L 393.080501 101.576066 
L 394.131961 95.58954 
L 395.533909 86.229547 
L 396.585369 78.496957 
L 396.585369 78.496957 
" style="fill:none;stroke:#1f77b4;stroke-linecap:square;stroke-width:1.5;"/>
   </g>
   <g id="patch_3">
    <path d="M 28.942188 117.118125 
L 28.942188 22.318125 
" style="fill:none;stroke:#000000;stroke-linecap:square;stroke-linejoin:miter;stroke-width:0.8;"/>
   </g>
   <g id="patch_4">
    <path d="M 414.092187 117.118125 
L 414.092187 22.318125 
" style="fill:none;stroke:#000000;stroke-linecap:square;stroke-linejoin:miter;stroke-width:0.8;"/>
   </g>
   <g id="patch_5">
    <path d="M 28.942188 117.118125 
L 414.092187 117.118125 
" style="fill:none;stroke:#000000;stroke-linecap:square;stroke-linejoin:miter;stroke-width:0.8;"/>
   </g>
   <g id="patch_6">
    <path d="M 28.942188 22.318125 
L 414.092187 22.318125 
" style="fill:none;stroke:#000000;stroke-linecap:square;stroke-linejoin:miter;stroke-width:0.8;"/>
   </g>
   <g id="text_10">
    <!-- Sine Wave -->
    <defs>
     <path d="M 53.515625 70.515625 
L 53.515625 60.890625 
Q 47.90625 63.578125 42.921875 64.890625 
Q 37.9375 66.21875 33.296875 66.21875 
Q 25.25 66.21875 20.875 63.09375 
Q 16.5 59.96875 16.5 54.203125 
Q 16.5 49.359375 19.40625 46.890625 
Q 22.3125 44.4375 30.421875 42.921875 
L 36.375 41.703125 
Q 47.40625 39.59375 52.65625 34.296875 
Q 57.90625 29 57.90625 20.125 
Q 57.90625 9.515625 50.796875 4.046875 
Q 43.703125 -1.421875 29.984375 -1.421875 
Q 24.8125 -1.421875 18.96875 -0.25 
Q 13.140625 0.921875 6.890625 3.21875 
L 6.890625 13.375 
Q 12.890625 10.015625 18.65625 8.296875 
Q 24.421875 6.59375 29.984375 6.59375 
Q 38.421875 6.59375 43.015625 9.90625 
Q 47.609375 13.234375 47.609375 19.390625 
Q 47.609375 24.75 44.3125 27.78125 
Q 41.015625 30.8125 33.5 32.328125 
L 27.484375 33.5 
Q 16.453125 35.6875 11.515625 40.375 
Q 6.59375 45.0625 6.59375 53.421875 
Q 6.59375 63.09375 13.40625 68.65625 
Q 20.21875 74.21875 32.171875 74.21875 
Q 37.3125 74.21875 42.625 73.28125 
Q 47.953125 72.359375 53.515625 70.515625 
z
" id="DejaVuSans-53"/>
     <path d="M 9.421875 54.6875 
L 18.40625 54.6875 
L 18.40625 0 
L 9.421875 0 
z
M 9.421875 75.984375 
L 18.40625 75.984375 
L 18.40625 64.59375 
L 9.421875 64.59375 
z
" id="DejaVuSans-69"/>
     <path d="M 54.890625 33.015625 
L 54.890625 0 
L 45.90625 0 
L 45.90625 32.71875 
Q 45.90625 40.484375 42.875 44.328125 
Q 39.84375 48.1875 33.796875 48.1875 
Q 26.515625 48.1875 22.3125 43.546875 
Q 18.109375 38.921875 18.109375 30.90625 
L 18.109375 0 
L 9.078125 0 
L 9.078125 54.6875 
L 18.109375 54.6875 
L 18.109375 46.1875 
Q 21.34375 51.125 25.703125 53.5625 
Q 30.078125 56 35.796875 56 
Q 45.21875 56 50.046875 50.171875 
Q 54.890625 44.34375 54.890625 33.015625 
z
" id="DejaVuSans-6e"/>
     <path d="M 56.203125 29.59375 
L 56.203125 25.203125 
L 14.890625 25.203125 
Q 15.484375 15.921875 20.484375 11.0625 
Q 25.484375 6.203125 34.421875 6.203125 
Q 39.59375 6.203125 44.453125 7.46875 
Q 49.3125 8.734375 54.109375 11.28125 
L 54.109375 2.78125 
Q 49.265625 0.734375 44.1875 -0.34375 
Q 39.109375 -1.421875 33.890625 -1.421875 
Q 20.796875 -1.421875 13.15625 6.1875 
Q 5.515625 13.8125 5.515625 26.8125 
Q 5.515625 40.234375 12.765625 48.109375 
Q 20.015625 56 32.328125 56 
Q 43.359375 56 49.78125 48.890625 
Q 56.203125 41.796875 56.203125 29.59375 
z
M 47.21875 32.234375 
Q 47.125 39.59375 43.09375 43.984375 
Q 39.0625 48.390625 32.421875 48.390625 
Q 24.90625 48.390625 20.390625 44.140625 
Q 15.875 39.890625 15.1875 32.171875 
z
" id="DejaVuSans-65"/>
     <path id="DejaVuSans-20"/>
     <path d="M 3.328125 72.90625 
L 13.28125 72.90625 
L 28.609375 11.28125 
L 43.890625 72.90625 
L 54.984375 72.90625 
L 70.3125 11.28125 
L 85.59375 72.90625 
L 95.609375 72.90625 
L 77.296875 0 
L 64.890625 0 
L 49.515625 63.28125 
L 33.984375 0 
L 21.578125 0 
z
" id="DejaVuSans-57"/>
     <path d="M 34.28125 27.484375 
Q 23.390625 27.484375 19.1875 25 
Q 14.984375 22.515625 14.984375 16.5 
Q 14.984375 11.71875 18.140625 8.90625 
Q 21.296875 6.109375 26.703125 6.109375 
Q 34.1875 6.109375 38.703125 11.40625 
Q 43.21875 16.703125 43.21875 25.484375 
L 43.21875 27.484375 
z
M 52.203125 31.203125 
L 52.203125 0 
L 43.21875 0 
L 43.21875 8.296875 
Q 40.140625 3.328125 35.546875 0.953125 
Q 30.953125 -1.421875 24.3125 -1.421875 
Q 15.921875 -1.421875 10.953125 3.296875 
Q 6 8.015625 6 15.921875 
Q 6 25.140625 12.171875 29.828125 
Q 18.359375 34.515625 30.609375 34.515625 
L 43.21875 34.515625 
L 43.21875 35.40625 
Q 43.21875 41.609375 39.140625 45 
Q 35.0625 48.390625 27.6875 48.390625 
Q 23 48.390625 18.546875 47.265625 
Q 14.109375 46.140625 10.015625 43.890625 
L 10.015625 52.203125 
Q 14.9375 54.109375 19.578125 55.046875 
Q 24.21875 56 28.609375 56 
Q 40.484375 56 46.34375 49.84375 
Q 52.203125 43.703125 52.203125 31.203125 
z
" id="DejaVuSans-61"/>
     <path d="M 2.984375 54.6875 
L 12.5 54.6875 
L 29.59375 8.796875 
L 46.6875 54.6875 
L 56.203125 54.6875 
L 35.6875 0 
L 23.484375 0 
z
" id="DejaVuSans-76"/>
    </defs>
    <g transform="translate(189.793125 16.318125)scale(0.12 -0.12)">
     <use xlink:href="#DejaVuSans-53"/>
     <use x="63.476562" xlink:href="#DejaVuSans-69"/>
     <use x="91.259766" xlink:href="#DejaVuSans-6e"/>
     <use x="154.638672" xlink:href="#DejaVuSans-65"/>
     <use x="216.162109" xlink:href="#DejaVuSans-20"/>
     <use x="247.949219" xlink:href="#DejaVuSans-57"/>
     <use x="346.732422" xlink:href="#DejaVuSans-61"/>
     <use x="408.011719" xlink:href="#DejaVuSans-76"/>
     <use x="467.191406" xlink:href="#DejaVuSans-65"/>
    </g>
   </g>
  </g>
  <g id="axes_2">
   <g id="patch_7">
    <path d="M 28.942188 255.718125 
L 414.092187 255.718125 
L 414.092187 160.918125 
L 28.942188 160.918125 
z
" style="fill:#ffffff;"/>
   </g>
   <g id="matplotlib.axis_3">
    <g id="xtick_7">
     <g id="line2d_11">
      <g>
       <use style="stroke:#000000;stroke-width:0.8;" x="46.449006" xlink:href="#m561a8f756b" y="255.718125"/>
      </g>
     </g>
     <g id="text_11">
      <!-- 0 -->
      <g transform="translate(43.267756 270.316563)scale(0.1 -0.1)">
       <use xlink:href="#DejaVuSans-30"/>
      </g>
     </g>
    </g>
    <g id="xtick_8">
     <g id="line2d_12">
      <g>
       <use style="stroke:#000000;stroke-width:0.8;" x="116.546376" xlink:href="#m561a8f756b" y="255.718125"/>
      </g>
     </g>
     <g id="text_12">
      <!-- 200 -->
      <g transform="translate(107.002626 270.316563)scale(0.1 -0.1)">
       <use xlink:href="#DejaVuSans-32"/>
       <use x="63.623047" xlink:href="#DejaVuSans-30"/>
       <use x="127.246094" xlink:href="#DejaVuSans-30"/>
      </g>
     </g>
    </g>
    <g id="xtick_9">
     <g id="line2d_13">
      <g>
       <use style="stroke:#000000;stroke-width:0.8;" x="186.643746" xlink:href="#m561a8f756b" y="255.718125"/>
      </g>
     </g>
     <g id="text_13">
      <!-- 400 -->
      <g transform="translate(177.099996 270.316563)scale(0.1 -0.1)">
       <use xlink:href="#DejaVuSans-34"/>
       <use x="63.623047" xlink:href="#DejaVuSans-30"/>
       <use x="127.246094" xlink:href="#DejaVuSans-30"/>
      </g>
     </g>
    </g>
    <g id="xtick_10">
     <g id="line2d_14">
      <g>
       <use style="stroke:#000000;stroke-width:0.8;" x="256.741116" xlink:href="#m561a8f756b" y="255.718125"/>
      </g>
     </g>
     <g id="text_14">
      <!-- 600 -->
      <g transform="translate(247.197366 270.316563)scale(0.1 -0.1)">
       <use xlink:href="#DejaVuSans-36"/>
       <use x="63.623047" xlink:href="#DejaVuSans-30"/>
       <use x="127.246094" xlink:href="#DejaVuSans-30"/>
      </g>
     </g>
    </g>
    <g id="xtick_11">
     <g id="line2d_15">
      <g>
       <use style="stroke:#000000;stroke-width:0.8;" x="326.838486" xlink:href="#m561a8f756b" y="255.718125"/>
      </g>
     </g>
     <g id="text_15">
      <!-- 800 -->
      <g transform="translate(317.294736 270.316563)scale(0.1 -0.1)">
       <use xlink:href="#DejaVuSans-38"/>
       <use x="63.623047" xlink:href="#DejaVuSans-30"/>
       <use x="127.246094" xlink:href="#DejaVuSans-30"/>
      </g>
     </g>
    </g>
    <g id="xtick_12">
     <g id="line2d_16">
      <g>
       <use style="stroke:#000000;stroke-width:0.8;" x="396.935856" xlink:href="#m561a8f756b" y="255.718125"/>
      </g>
     </g>
     <g id="text_16">
      <!-- 1000 -->
      <g transform="translate(384.210856 270.316563)scale(0.1 -0.1)">
       <use xlink:href="#DejaVuSans-31"/>
       <use x="63.623047" xlink:href="#DejaVuSans-30"/>
       <use x="127.246094" xlink:href="#DejaVuSans-30"/>
       <use x="190.869141" xlink:href="#DejaVuSans-30"/>
      </g>
     </g>
    </g>
   </g>
   <g id="matplotlib.axis_4">
    <g id="ytick_4">
     <g id="line2d_17">
      <g>
       <use style="stroke:#000000;stroke-width:0.8;" x="28.942188" xlink:href="#m6464c7fce9" y="251.409034"/>
      </g>
     </g>
     <g id="text_17">
      <!-- −1 -->
      <g transform="translate(7.2 255.208253)scale(0.1 -0.1)">
       <use xlink:href="#DejaVuSans-2212"/>
       <use x="83.789062" xlink:href="#DejaVuSans-31"/>
      </g>
     </g>
    </g>
    <g id="ytick_5">
     <g id="line2d_18">
      <g>
       <use style="stroke:#000000;stroke-width:0.8;" x="28.942188" xlink:href="#m6464c7fce9" y="208.318125"/>
      </g>
     </g>
     <g id="text_18">
      <!-- 0 -->
      <g transform="translate(15.579688 212.117344)scale(0.1 -0.1)">
       <use xlink:href="#DejaVuSans-30"/>
      </g>
     </g>
    </g>
    <g id="ytick_6">
     <g id="line2d_19">
      <g>
       <use style="stroke:#000000;stroke-width:0.8;" x="28.942188" xlink:href="#m6464c7fce9" y="165.227216"/>
      </g>
     </g>
     <g id="text_19">
      <!-- 1 -->
      <g transform="translate(15.579688 169.026435)scale(0.1 -0.1)">
       <use xlink:href="#DejaVuSans-31"/>
      </g>
     </g>
    </g>
   </g>
   <g id="line2d_20">
    <path clip-path="url(#p777133cb8f)" d="M 46.449006 208.318125 
L 46.799493 165.227216 
L 63.973348 165.227216 
L 64.323835 251.409034 
L 81.497691 251.409034 
L 81.848178 165.227216 
L 99.022033 165.227216 
L 99.37252 251.409034 
L 116.546376 251.409034 
L 116.896863 165.227216 
L 134.070718 165.227216 
L 134.421205 251.409034 
L 151.595061 251.409034 
L 151.945548 165.227216 
L 169.119403 165.227216 
L 169.46989 251.409034 
L 186.643746 251.409034 
L 186.994233 165.227216 
L 204.518575 165.227216 
L 204.869062 251.409034 
L 222.042918 251.409034 
L 222.393405 165.227216 
L 239.56726 165.227216 
L 239.917747 251.409034 
L 257.091603 251.409034 
L 257.44209 165.227216 
L 274.615945 165.227216 
L 274.966432 251.409034 
L 292.140288 251.409034 
L 292.490775 165.227216 
L 309.66463 165.227216 
L 310.015117 251.409034 
L 327.188973 251.409034 
L 327.53946 165.227216 
L 344.713315 165.227216 
L 345.063802 251.409034 
L 362.588145 251.409034 
L 362.938632 165.227216 
L 380.112487 165.227216 
L 380.462974 251.409034 
L 396.585369 251.409034 
L 396.585369 251.409034 
" style="fill:none;stroke:#1f77b4;stroke-linecap:square;stroke-width:1.5;"/>
   </g>
   <g id="patch_8">
    <path d="M 28.942188 255.718125 
L 28.942188 160.918125 
" style="fill:none;stroke:#000000;stroke-linecap:square;stroke-linejoin:miter;stroke-width:0.8;"/>
   </g>
   <g id="patch_9">
    <path d="M 414.092187 255.718125 
L 414.092187 160.918125 
" style="fill:none;stroke:#000000;stroke-linecap:square;stroke-linejoin:miter;stroke-width:0.8;"/>
   </g>
   <g id="patch_10">
    <path d="M 28.942188 255.718125 
L 414.092187 255.718125 
" style="fill:none;stroke:#000000;stroke-linecap:square;stroke-linejoin:miter;stroke-width:0.8;"/>
   </g>
   <g id="patch_11">
    <path d="M 28.942188 160.918125 
L 414.092187 160.918125 
" style="fill:none;stroke:#000000;stroke-linecap:square;stroke-linejoin:miter;stroke-width:0.8;"/>
   </g>
   <g id="text_20">
    <!-- Square Wave -->
    <defs>
     <path d="M 14.796875 27.296875 
Q 14.796875 17.390625 18.875 11.75 
Q 22.953125 6.109375 30.078125 6.109375 
Q 37.203125 6.109375 41.296875 11.75 
Q 45.40625 17.390625 45.40625 27.296875 
Q 45.40625 37.203125 41.296875 42.84375 
Q 37.203125 48.484375 30.078125 48.484375 
Q 22.953125 48.484375 18.875 42.84375 
Q 14.796875 37.203125 14.796875 27.296875 
z
M 45.40625 8.203125 
Q 42.578125 3.328125 38.25 0.953125 
Q 33.9375 -1.421875 27.875 -1.421875 
Q 17.96875 -1.421875 11.734375 6.484375 
Q 5.515625 14.40625 5.515625 27.296875 
Q 5.515625 40.1875 11.734375 48.09375 
Q 17.96875 56 27.875 56 
Q 33.9375 56 38.25 53.625 
Q 42.578125 51.265625 45.40625 46.390625 
L 45.40625 54.6875 
L 54.390625 54.6875 
L 54.390625 -20.796875 
L 45.40625 -20.796875 
z
" id="DejaVuSans-71"/>
     <path d="M 8.5 21.578125 
L 8.5 54.6875 
L 17.484375 54.6875 
L 17.484375 21.921875 
Q 17.484375 14.15625 20.5 10.265625 
Q 23.53125 6.390625 29.59375 6.390625 
Q 36.859375 6.390625 41.078125 11.03125 
Q 45.3125 15.671875 45.3125 23.6875 
L 45.3125 54.6875 
L 54.296875 54.6875 
L 54.296875 0 
L 45.3125 0 
L 45.3125 8.40625 
Q 42.046875 3.421875 37.71875 1 
Q 33.40625 -1.421875 27.6875 -1.421875 
Q 18.265625 -1.421875 13.375 4.4375 
Q 8.5 10.296875 8.5 21.578125 
z
M 31.109375 56 
z
" id="DejaVuSans-75"/>
     <path d="M 41.109375 46.296875 
Q 39.59375 47.171875 37.8125 47.578125 
Q 36.03125 48 33.890625 48 
Q 26.265625 48 22.1875 43.046875 
Q 18.109375 38.09375 18.109375 28.8125 
L 18.109375 0 
L 9.078125 0 
L 9.078125 54.6875 
L 18.109375 54.6875 
L 18.109375 46.1875 
Q 20.953125 51.171875 25.484375 53.578125 
Q 30.03125 56 36.53125 56 
Q 37.453125 56 38.578125 55.875 
Q 39.703125 55.765625 41.0625 55.515625 
z
" id="DejaVuSans-72"/>
    </defs>
    <g transform="translate(181.509375 154.918125)scale(0.12 -0.12)">
     <use xlink:href="#DejaVuSans-53"/>
     <use x="63.476562" xlink:href="#DejaVuSans-71"/>
     <use x="126.953125" xlink:href="#DejaVuSans-75"/>
     <use x="190.332031" xlink:href="#DejaVuSans-61"/>
     <use x="251.611328" xlink:href="#DejaVuSans-72"/>
     <use x="292.693359" xlink:href="#DejaVuSans-65"/>
     <use x="354.216797" xlink:href="#DejaVuSans-20"/>
     <use x="386.003906" xlink:href="#DejaVuSans-57"/>
     <use x="484.787109" xlink:href="#DejaVuSans-61"/>
     <use x="546.066406" xlink:href="#DejaVuSans-76"/>
     <use x="605.246094" xlink:href="#DejaVuSans-65"/>
    </g>
   </g>
  </g>
 </g>
 <defs>
  <clipPath id="pf9702dc24c">
   <rect height="94.8" width="385.15" x="28.942188" y="22.318125"/>
  </clipPath>
  <clipPath id="p777133cb8f">
   <rect height="94.8" width="385.15" x="28.942188" y="160.918125"/>
  </clipPath>
 </defs>
</svg>
