<?xml version="1.0" encoding="utf-8" standalone="no"?>
<!DOCTYPE svg PUBLIC "-//W3C//DTD SVG 1.1//EN"
  "http://www.w3.org/Graphics/SVG/1.1/DTD/svg11.dtd">
<!-- Created with matplotlib (https://matplotlib.org/) -->
<svg height="360pt" version="1.1" viewBox="0 0 576 360" width="576pt" xmlns="http://www.w3.org/2000/svg" xmlns:xlink="http://www.w3.org/1999/xlink">
 <defs>
  <style type="text/css">
*{stroke-linecap:butt;stroke-linejoin:round;}
  </style>
 </defs>
 <g id="figure_1">
  <g id="patch_1">
   <path d="M 0 360 
L 576 360 
L 576 0 
L 0 0 
z
" style="fill:#ffffff;"/>
  </g>
  <g id="axes_1">
   <g id="patch_2">
    <path d="M 72 320.4 
L 518.4 320.4 
L 518.4 43.2 
L 72 43.2 
z
" style="fill:#ffffff;"/>
   </g>
   <g id="matplotlib.axis_1">
    <g id="xtick_1">
     <g id="line2d_1">
      <defs>
       <path d="M 0 0 
L 0 3.5 
" id="m41191f0da9" style="stroke:#000000;stroke-width:0.8;"/>
      </defs>
      <g>
       <use style="stroke:#000000;stroke-width:0.8;" x="92.290909" xlink:href="#m41191f0da9" y="320.4"/>
      </g>
     </g>
     <g id="text_1">
      <!-- 0 -->
      <defs>
       <path d="M 31.78125 66.40625 
Q 24.171875 66.40625 20.328125 58.90625 
Q 16.5 51.421875 16.5 36.375 
Q 16.5 21.390625 20.328125 13.890625 
Q 24.171875 6.390625 31.78125 6.390625 
Q 39.453125 6.390625 43.28125 13.890625 
Q 47.125 21.390625 47.125 36.375 
Q 47.125 51.421875 43.28125 58.90625 
Q 39.453125 66.40625 31.78125 66.40625 
z
M 31.78125 74.21875 
Q 44.046875 74.21875 50.515625 64.515625 
Q 56.984375 54.828125 56.984375 36.375 
Q 56.984375 17.96875 50.515625 8.265625 
Q 44.046875 -1.421875 31.78125 -1.421875 
Q 19.53125 -1.421875 13.0625 8.265625 
Q 6.59375 17.96875 6.59375 36.375 
Q 6.59375 54.828125 13.0625 64.515625 
Q 19.53125 74.21875 31.78125 74.21875 
z
" id="DejaVuSans-48"/>
      </defs>
      <g transform="translate(89.109659 334.998438)scale(0.1 -0.1)">
       <use xlink:href="#DejaVuSans-48"/>
      </g>
     </g>
    </g>
    <g id="xtick_2">
     <g id="line2d_2">
      <g>
       <use style="stroke:#000000;stroke-width:0.8;" x="159.950766" xlink:href="#m41191f0da9" y="320.4"/>
      </g>
     </g>
     <g id="text_2">
      <!-- 20 -->
      <defs>
       <path d="M 19.1875 8.296875 
L 53.609375 8.296875 
L 53.609375 0 
L 7.328125 0 
L 7.328125 8.296875 
Q 12.9375 14.109375 22.625 23.890625 
Q 32.328125 33.6875 34.8125 36.53125 
Q 39.546875 41.84375 41.421875 45.53125 
Q 43.3125 49.21875 43.3125 52.78125 
Q 43.3125 58.59375 39.234375 62.25 
Q 35.15625 65.921875 28.609375 65.921875 
Q 23.96875 65.921875 18.8125 64.3125 
Q 13.671875 62.703125 7.8125 59.421875 
L 7.8125 69.390625 
Q 13.765625 71.78125 18.9375 73 
Q 24.125 74.21875 28.421875 74.21875 
Q 39.75 74.21875 46.484375 68.546875 
Q 53.21875 62.890625 53.21875 53.421875 
Q 53.21875 48.921875 51.53125 44.890625 
Q 49.859375 40.875 45.40625 35.40625 
Q 44.1875 33.984375 37.640625 27.21875 
Q 31.109375 20.453125 19.1875 8.296875 
z
" id="DejaVuSans-50"/>
      </defs>
      <g transform="translate(153.588266 334.998438)scale(0.1 -0.1)">
       <use xlink:href="#DejaVuSans-50"/>
       <use x="63.623047" xlink:href="#DejaVuSans-48"/>
      </g>
     </g>
    </g>
    <g id="xtick_3">
     <g id="line2d_3">
      <g>
       <use style="stroke:#000000;stroke-width:0.8;" x="227.610622" xlink:href="#m41191f0da9" y="320.4"/>
      </g>
     </g>
     <g id="text_3">
      <!-- 40 -->
      <defs>
       <path d="M 37.796875 64.3125 
L 12.890625 25.390625 
L 37.796875 25.390625 
z
M 35.203125 72.90625 
L 47.609375 72.90625 
L 47.609375 25.390625 
L 58.015625 25.390625 
L 58.015625 17.1875 
L 47.609375 17.1875 
L 47.609375 0 
L 37.796875 0 
L 37.796875 17.1875 
L 4.890625 17.1875 
L 4.890625 26.703125 
z
" id="DejaVuSans-52"/>
      </defs>
      <g transform="translate(221.248122 334.998438)scale(0.1 -0.1)">
       <use xlink:href="#DejaVuSans-52"/>
       <use x="63.623047" xlink:href="#DejaVuSans-48"/>
      </g>
     </g>
    </g>
    <g id="xtick_4">
     <g id="line2d_4">
      <g>
       <use style="stroke:#000000;stroke-width:0.8;" x="295.270479" xlink:href="#m41191f0da9" y="320.4"/>
      </g>
     </g>
     <g id="text_4">
      <!-- 60 -->
      <defs>
       <path d="M 33.015625 40.375 
Q 26.375 40.375 22.484375 35.828125 
Q 18.609375 31.296875 18.609375 23.390625 
Q 18.609375 15.53125 22.484375 10.953125 
Q 26.375 6.390625 33.015625 6.390625 
Q 39.65625 6.390625 43.53125 10.953125 
Q 47.40625 15.53125 47.40625 23.390625 
Q 47.40625 31.296875 43.53125 35.828125 
Q 39.65625 40.375 33.015625 40.375 
z
M 52.59375 71.296875 
L 52.59375 62.3125 
Q 48.875 64.0625 45.09375 64.984375 
Q 41.3125 65.921875 37.59375 65.921875 
Q 27.828125 65.921875 22.671875 59.328125 
Q 17.53125 52.734375 16.796875 39.40625 
Q 19.671875 43.65625 24.015625 45.921875 
Q 28.375 48.1875 33.59375 48.1875 
Q 44.578125 48.1875 50.953125 41.515625 
Q 57.328125 34.859375 57.328125 23.390625 
Q 57.328125 12.15625 50.6875 5.359375 
Q 44.046875 -1.421875 33.015625 -1.421875 
Q 20.359375 -1.421875 13.671875 8.265625 
Q 6.984375 17.96875 6.984375 36.375 
Q 6.984375 53.65625 15.1875 63.9375 
Q 23.390625 74.21875 37.203125 74.21875 
Q 40.921875 74.21875 44.703125 73.484375 
Q 48.484375 72.75 52.59375 71.296875 
z
" id="DejaVuSans-54"/>
      </defs>
      <g transform="translate(288.907979 334.998438)scale(0.1 -0.1)">
       <use xlink:href="#DejaVuSans-54"/>
       <use x="63.623047" xlink:href="#DejaVuSans-48"/>
      </g>
     </g>
    </g>
    <g id="xtick_5">
     <g id="line2d_5">
      <g>
       <use style="stroke:#000000;stroke-width:0.8;" x="362.930336" xlink:href="#m41191f0da9" y="320.4"/>
      </g>
     </g>
     <g id="text_5">
      <!-- 80 -->
      <defs>
       <path d="M 31.78125 34.625 
Q 24.75 34.625 20.71875 30.859375 
Q 16.703125 27.09375 16.703125 20.515625 
Q 16.703125 13.921875 20.71875 10.15625 
Q 24.75 6.390625 31.78125 6.390625 
Q 38.8125 6.390625 42.859375 10.171875 
Q 46.921875 13.96875 46.921875 20.515625 
Q 46.921875 27.09375 42.890625 30.859375 
Q 38.875 34.625 31.78125 34.625 
z
M 21.921875 38.8125 
Q 15.578125 40.375 12.03125 44.71875 
Q 8.5 49.078125 8.5 55.328125 
Q 8.5 64.0625 14.71875 69.140625 
Q 20.953125 74.21875 31.78125 74.21875 
Q 42.671875 74.21875 48.875 69.140625 
Q 55.078125 64.0625 55.078125 55.328125 
Q 55.078125 49.078125 51.53125 44.71875 
Q 48 40.375 41.703125 38.8125 
Q 48.828125 37.15625 52.796875 32.3125 
Q 56.78125 27.484375 56.78125 20.515625 
Q 56.78125 9.90625 50.3125 4.234375 
Q 43.84375 -1.421875 31.78125 -1.421875 
Q 19.734375 -1.421875 13.25 4.234375 
Q 6.78125 9.90625 6.78125 20.515625 
Q 6.78125 27.484375 10.78125 32.3125 
Q 14.796875 37.15625 21.921875 38.8125 
z
M 18.3125 54.390625 
Q 18.3125 48.734375 21.84375 45.5625 
Q 25.390625 42.390625 31.78125 42.390625 
Q 38.140625 42.390625 41.71875 45.5625 
Q 45.3125 48.734375 45.3125 54.390625 
Q 45.3125 60.0625 41.71875 63.234375 
Q 38.140625 66.40625 31.78125 66.40625 
Q 25.390625 66.40625 21.84375 63.234375 
Q 18.3125 60.0625 18.3125 54.390625 
z
" id="DejaVuSans-56"/>
      </defs>
      <g transform="translate(356.567836 334.998438)scale(0.1 -0.1)">
       <use xlink:href="#DejaVuSans-56"/>
       <use x="63.623047" xlink:href="#DejaVuSans-48"/>
      </g>
     </g>
    </g>
    <g id="xtick_6">
     <g id="line2d_6">
      <g>
       <use style="stroke:#000000;stroke-width:0.8;" x="430.590192" xlink:href="#m41191f0da9" y="320.4"/>
      </g>
     </g>
     <g id="text_6">
      <!-- 100 -->
      <defs>
       <path d="M 12.40625 8.296875 
L 28.515625 8.296875 
L 28.515625 63.921875 
L 10.984375 60.40625 
L 10.984375 69.390625 
L 28.421875 72.90625 
L 38.28125 72.90625 
L 38.28125 8.296875 
L 54.390625 8.296875 
L 54.390625 0 
L 12.40625 0 
z
" id="DejaVuSans-49"/>
      </defs>
      <g transform="translate(421.046442 334.998438)scale(0.1 -0.1)">
       <use xlink:href="#DejaVuSans-49"/>
       <use x="63.623047" xlink:href="#DejaVuSans-48"/>
       <use x="127.246094" xlink:href="#DejaVuSans-48"/>
      </g>
     </g>
    </g>
    <g id="xtick_7">
     <g id="line2d_7">
      <g>
       <use style="stroke:#000000;stroke-width:0.8;" x="498.250049" xlink:href="#m41191f0da9" y="320.4"/>
      </g>
     </g>
     <g id="text_7">
      <!-- 120 -->
      <g transform="translate(488.706299 334.998438)scale(0.1 -0.1)">
       <use xlink:href="#DejaVuSans-49"/>
       <use x="63.623047" xlink:href="#DejaVuSans-50"/>
       <use x="127.246094" xlink:href="#DejaVuSans-48"/>
      </g>
     </g>
    </g>
    <g id="text_8">
     <!-- Day -->
     <defs>
      <path d="M 19.671875 64.796875 
L 19.671875 8.109375 
L 31.59375 8.109375 
Q 46.6875 8.109375 53.6875 14.9375 
Q 60.6875 21.78125 60.6875 36.53125 
Q 60.6875 51.171875 53.6875 57.984375 
Q 46.6875 64.796875 31.59375 64.796875 
z
M 9.8125 72.90625 
L 30.078125 72.90625 
Q 51.265625 72.90625 61.171875 64.09375 
Q 71.09375 55.28125 71.09375 36.53125 
Q 71.09375 17.671875 61.125 8.828125 
Q 51.171875 0 30.078125 0 
L 9.8125 0 
z
" id="DejaVuSans-68"/>
      <path d="M 34.28125 27.484375 
Q 23.390625 27.484375 19.1875 25 
Q 14.984375 22.515625 14.984375 16.5 
Q 14.984375 11.71875 18.140625 8.90625 
Q 21.296875 6.109375 26.703125 6.109375 
Q 34.1875 6.109375 38.703125 11.40625 
Q 43.21875 16.703125 43.21875 25.484375 
L 43.21875 27.484375 
z
M 52.203125 31.203125 
L 52.203125 0 
L 43.21875 0 
L 43.21875 8.296875 
Q 40.140625 3.328125 35.546875 0.953125 
Q 30.953125 -1.421875 24.3125 -1.421875 
Q 15.921875 -1.421875 10.953125 3.296875 
Q 6 8.015625 6 15.921875 
Q 6 25.140625 12.171875 29.828125 
Q 18.359375 34.515625 30.609375 34.515625 
L 43.21875 34.515625 
L 43.21875 35.40625 
Q 43.21875 41.609375 39.140625 45 
Q 35.0625 48.390625 27.6875 48.390625 
Q 23 48.390625 18.546875 47.265625 
Q 14.109375 46.140625 10.015625 43.890625 
L 10.015625 52.203125 
Q 14.9375 54.109375 19.578125 55.046875 
Q 24.21875 56 28.609375 56 
Q 40.484375 56 46.34375 49.84375 
Q 52.203125 43.703125 52.203125 31.203125 
z
" id="DejaVuSans-97"/>
      <path d="M 32.171875 -5.078125 
Q 28.375 -14.84375 24.75 -17.8125 
Q 21.140625 -20.796875 15.09375 -20.796875 
L 7.90625 -20.796875 
L 7.90625 -13.28125 
L 13.1875 -13.28125 
Q 16.890625 -13.28125 18.9375 -11.515625 
Q 21 -9.765625 23.484375 -3.21875 
L 25.09375 0.875 
L 2.984375 54.6875 
L 12.5 54.6875 
L 29.59375 11.921875 
L 46.6875 54.6875 
L 56.203125 54.6875 
z
" id="DejaVuSans-121"/>
     </defs>
     <g transform="translate(285.326562 348.676562)scale(0.1 -0.1)">
      <use xlink:href="#DejaVuSans-68"/>
      <use x="77.001953" xlink:href="#DejaVuSans-97"/>
      <use x="138.28125" xlink:href="#DejaVuSans-121"/>
     </g>
    </g>
   </g>
   <g id="matplotlib.axis_2">
    <g id="ytick_1">
     <g id="line2d_8">
      <defs>
       <path d="M 0 0 
L -3.5 0 
" id="m1919c786c4" style="stroke:#000000;stroke-width:0.8;"/>
      </defs>
      <g>
       <use style="stroke:#000000;stroke-width:0.8;" x="72" xlink:href="#m1919c786c4" y="307.8"/>
      </g>
     </g>
     <g id="text_9">
      <!-- 0 -->
      <g transform="translate(58.6375 311.599219)scale(0.1 -0.1)">
       <use xlink:href="#DejaVuSans-48"/>
      </g>
     </g>
    </g>
    <g id="ytick_2">
     <g id="line2d_9">
      <g>
       <use style="stroke:#000000;stroke-width:0.8;" x="72" xlink:href="#m1919c786c4" y="257.34955"/>
      </g>
     </g>
     <g id="text_10">
      <!-- 200 -->
      <g transform="translate(45.9125 261.148768)scale(0.1 -0.1)">
       <use xlink:href="#DejaVuSans-50"/>
       <use x="63.623047" xlink:href="#DejaVuSans-48"/>
       <use x="127.246094" xlink:href="#DejaVuSans-48"/>
      </g>
     </g>
    </g>
    <g id="ytick_3">
     <g id="line2d_10">
      <g>
       <use style="stroke:#000000;stroke-width:0.8;" x="72" xlink:href="#m1919c786c4" y="206.899099"/>
      </g>
     </g>
     <g id="text_11">
      <!-- 400 -->
      <g transform="translate(45.9125 210.698318)scale(0.1 -0.1)">
       <use xlink:href="#DejaVuSans-52"/>
       <use x="63.623047" xlink:href="#DejaVuSans-48"/>
       <use x="127.246094" xlink:href="#DejaVuSans-48"/>
      </g>
     </g>
    </g>
    <g id="ytick_4">
     <g id="line2d_11">
      <g>
       <use style="stroke:#000000;stroke-width:0.8;" x="72" xlink:href="#m1919c786c4" y="156.448649"/>
      </g>
     </g>
     <g id="text_12">
      <!-- 600 -->
      <g transform="translate(45.9125 160.247867)scale(0.1 -0.1)">
       <use xlink:href="#DejaVuSans-54"/>
       <use x="63.623047" xlink:href="#DejaVuSans-48"/>
       <use x="127.246094" xlink:href="#DejaVuSans-48"/>
      </g>
     </g>
    </g>
    <g id="ytick_5">
     <g id="line2d_12">
      <g>
       <use style="stroke:#000000;stroke-width:0.8;" x="72" xlink:href="#m1919c786c4" y="105.998198"/>
      </g>
     </g>
     <g id="text_13">
      <!-- 800 -->
      <g transform="translate(45.9125 109.797417)scale(0.1 -0.1)">
       <use xlink:href="#DejaVuSans-56"/>
       <use x="63.623047" xlink:href="#DejaVuSans-48"/>
       <use x="127.246094" xlink:href="#DejaVuSans-48"/>
      </g>
     </g>
    </g>
    <g id="ytick_6">
     <g id="line2d_13">
      <g>
       <use style="stroke:#000000;stroke-width:0.8;" x="72" xlink:href="#m1919c786c4" y="55.547748"/>
      </g>
     </g>
     <g id="text_14">
      <!-- 1000 -->
      <g transform="translate(39.55 59.346966)scale(0.1 -0.1)">
       <use xlink:href="#DejaVuSans-49"/>
       <use x="63.623047" xlink:href="#DejaVuSans-48"/>
       <use x="127.246094" xlink:href="#DejaVuSans-48"/>
       <use x="190.869141" xlink:href="#DejaVuSans-48"/>
      </g>
     </g>
    </g>
    <g id="text_15">
     <!-- Number of People -->
     <defs>
      <path d="M 9.8125 72.90625 
L 23.09375 72.90625 
L 55.421875 11.921875 
L 55.421875 72.90625 
L 64.984375 72.90625 
L 64.984375 0 
L 51.703125 0 
L 19.390625 60.984375 
L 19.390625 0 
L 9.8125 0 
z
" id="DejaVuSans-78"/>
      <path d="M 8.5 21.578125 
L 8.5 54.6875 
L 17.484375 54.6875 
L 17.484375 21.921875 
Q 17.484375 14.15625 20.5 10.265625 
Q 23.53125 6.390625 29.59375 6.390625 
Q 36.859375 6.390625 41.078125 11.03125 
Q 45.3125 15.671875 45.3125 23.6875 
L 45.3125 54.6875 
L 54.296875 54.6875 
L 54.296875 0 
L 45.3125 0 
L 45.3125 8.40625 
Q 42.046875 3.421875 37.71875 1 
Q 33.40625 -1.421875 27.6875 -1.421875 
Q 18.265625 -1.421875 13.375 4.4375 
Q 8.5 10.296875 8.5 21.578125 
z
M 31.109375 56 
z
" id="DejaVuSans-117"/>
      <path d="M 52 44.1875 
Q 55.375 50.25 60.0625 53.125 
Q 64.75 56 71.09375 56 
Q 79.640625 56 84.28125 50.015625 
Q 88.921875 44.046875 88.921875 33.015625 
L 88.921875 0 
L 79.890625 0 
L 79.890625 32.71875 
Q 79.890625 40.578125 77.09375 44.375 
Q 74.3125 48.1875 68.609375 48.1875 
Q 61.625 48.1875 57.5625 43.546875 
Q 53.515625 38.921875 53.515625 30.90625 
L 53.515625 0 
L 44.484375 0 
L 44.484375 32.71875 
Q 44.484375 40.625 41.703125 44.40625 
Q 38.921875 48.1875 33.109375 48.1875 
Q 26.21875 48.1875 22.15625 43.53125 
Q 18.109375 38.875 18.109375 30.90625 
L 18.109375 0 
L 9.078125 0 
L 9.078125 54.6875 
L 18.109375 54.6875 
L 18.109375 46.1875 
Q 21.1875 51.21875 25.484375 53.609375 
Q 29.78125 56 35.6875 56 
Q 41.65625 56 45.828125 52.96875 
Q 50 49.953125 52 44.1875 
z
" id="DejaVuSans-109"/>
      <path d="M 48.6875 27.296875 
Q 48.6875 37.203125 44.609375 42.84375 
Q 40.53125 48.484375 33.40625 48.484375 
Q 26.265625 48.484375 22.1875 42.84375 
Q 18.109375 37.203125 18.109375 27.296875 
Q 18.109375 17.390625 22.1875 11.75 
Q 26.265625 6.109375 33.40625 6.109375 
Q 40.53125 6.109375 44.609375 11.75 
Q 48.6875 17.390625 48.6875 27.296875 
z
M 18.109375 46.390625 
Q 20.953125 51.265625 25.265625 53.625 
Q 29.59375 56 35.59375 56 
Q 45.5625 56 51.78125 48.09375 
Q 58.015625 40.1875 58.015625 27.296875 
Q 58.015625 14.40625 51.78125 6.484375 
Q 45.5625 -1.421875 35.59375 -1.421875 
Q 29.59375 -1.421875 25.265625 0.953125 
Q 20.953125 3.328125 18.109375 8.203125 
L 18.109375 0 
L 9.078125 0 
L 9.078125 75.984375 
L 18.109375 75.984375 
z
" id="DejaVuSans-98"/>
      <path d="M 56.203125 29.59375 
L 56.203125 25.203125 
L 14.890625 25.203125 
Q 15.484375 15.921875 20.484375 11.0625 
Q 25.484375 6.203125 34.421875 6.203125 
Q 39.59375 6.203125 44.453125 7.46875 
Q 49.3125 8.734375 54.109375 11.28125 
L 54.109375 2.78125 
Q 49.265625 0.734375 44.1875 -0.34375 
Q 39.109375 -1.421875 33.890625 -1.421875 
Q 20.796875 -1.421875 13.15625 6.1875 
Q 5.515625 13.8125 5.515625 26.8125 
Q 5.515625 40.234375 12.765625 48.109375 
Q 20.015625 56 32.328125 56 
Q 43.359375 56 49.78125 48.890625 
Q 56.203125 41.796875 56.203125 29.59375 
z
M 47.21875 32.234375 
Q 47.125 39.59375 43.09375 43.984375 
Q 39.0625 48.390625 32.421875 48.390625 
Q 24.90625 48.390625 20.390625 44.140625 
Q 15.875 39.890625 15.1875 32.171875 
z
" id="DejaVuSans-101"/>
      <path d="M 41.109375 46.296875 
Q 39.59375 47.171875 37.8125 47.578125 
Q 36.03125 48 33.890625 48 
Q 26.265625 48 22.1875 43.046875 
Q 18.109375 38.09375 18.109375 28.8125 
L 18.109375 0 
L 9.078125 0 
L 9.078125 54.6875 
L 18.109375 54.6875 
L 18.109375 46.1875 
Q 20.953125 51.171875 25.484375 53.578125 
Q 30.03125 56 36.53125 56 
Q 37.453125 56 38.578125 55.875 
Q 39.703125 55.765625 41.0625 55.515625 
z
" id="DejaVuSans-114"/>
      <path id="DejaVuSans-32"/>
      <path d="M 30.609375 48.390625 
Q 23.390625 48.390625 19.1875 42.75 
Q 14.984375 37.109375 14.984375 27.296875 
Q 14.984375 17.484375 19.15625 11.84375 
Q 23.34375 6.203125 30.609375 6.203125 
Q 37.796875 6.203125 41.984375 11.859375 
Q 46.1875 17.53125 46.1875 27.296875 
Q 46.1875 37.015625 41.984375 42.703125 
Q 37.796875 48.390625 30.609375 48.390625 
z
M 30.609375 56 
Q 42.328125 56 49.015625 48.375 
Q 55.71875 40.765625 55.71875 27.296875 
Q 55.71875 13.875 49.015625 6.21875 
Q 42.328125 -1.421875 30.609375 -1.421875 
Q 18.84375 -1.421875 12.171875 6.21875 
Q 5.515625 13.875 5.515625 27.296875 
Q 5.515625 40.765625 12.171875 48.375 
Q 18.84375 56 30.609375 56 
z
" id="DejaVuSans-111"/>
      <path d="M 37.109375 75.984375 
L 37.109375 68.5 
L 28.515625 68.5 
Q 23.6875 68.5 21.796875 66.546875 
Q 19.921875 64.59375 19.921875 59.515625 
L 19.921875 54.6875 
L 34.71875 54.6875 
L 34.71875 47.703125 
L 19.921875 47.703125 
L 19.921875 0 
L 10.890625 0 
L 10.890625 47.703125 
L 2.296875 47.703125 
L 2.296875 54.6875 
L 10.890625 54.6875 
L 10.890625 58.5 
Q 10.890625 67.625 15.140625 71.796875 
Q 19.390625 75.984375 28.609375 75.984375 
z
" id="DejaVuSans-102"/>
      <path d="M 19.671875 64.796875 
L 19.671875 37.40625 
L 32.078125 37.40625 
Q 38.96875 37.40625 42.71875 40.96875 
Q 46.484375 44.53125 46.484375 51.125 
Q 46.484375 57.671875 42.71875 61.234375 
Q 38.96875 64.796875 32.078125 64.796875 
z
M 9.8125 72.90625 
L 32.078125 72.90625 
Q 44.34375 72.90625 50.609375 67.359375 
Q 56.890625 61.8125 56.890625 51.125 
Q 56.890625 40.328125 50.609375 34.8125 
Q 44.34375 29.296875 32.078125 29.296875 
L 19.671875 29.296875 
L 19.671875 0 
L 9.8125 0 
z
" id="DejaVuSans-80"/>
      <path d="M 18.109375 8.203125 
L 18.109375 -20.796875 
L 9.078125 -20.796875 
L 9.078125 54.6875 
L 18.109375 54.6875 
L 18.109375 46.390625 
Q 20.953125 51.265625 25.265625 53.625 
Q 29.59375 56 35.59375 56 
Q 45.5625 56 51.78125 48.09375 
Q 58.015625 40.1875 58.015625 27.296875 
Q 58.015625 14.40625 51.78125 6.484375 
Q 45.5625 -1.421875 35.59375 -1.421875 
Q 29.59375 -1.421875 25.265625 0.953125 
Q 20.953125 3.328125 18.109375 8.203125 
z
M 48.6875 27.296875 
Q 48.6875 37.203125 44.609375 42.84375 
Q 40.53125 48.484375 33.40625 48.484375 
Q 26.265625 48.484375 22.1875 42.84375 
Q 18.109375 37.203125 18.109375 27.296875 
Q 18.109375 17.390625 22.1875 11.75 
Q 26.265625 6.109375 33.40625 6.109375 
Q 40.53125 6.109375 44.609375 11.75 
Q 48.6875 17.390625 48.6875 27.296875 
z
" id="DejaVuSans-112"/>
      <path d="M 9.421875 75.984375 
L 18.40625 75.984375 
L 18.40625 0 
L 9.421875 0 
z
" id="DejaVuSans-108"/>
     </defs>
     <g transform="translate(33.470312 226.671875)rotate(-90)scale(0.1 -0.1)">
      <use xlink:href="#DejaVuSans-78"/>
      <use x="74.804688" xlink:href="#DejaVuSans-117"/>
      <use x="138.183594" xlink:href="#DejaVuSans-109"/>
      <use x="235.595703" xlink:href="#DejaVuSans-98"/>
      <use x="299.072266" xlink:href="#DejaVuSans-101"/>
      <use x="360.595703" xlink:href="#DejaVuSans-114"/>
      <use x="401.708984" xlink:href="#DejaVuSans-32"/>
      <use x="433.496094" xlink:href="#DejaVuSans-111"/>
      <use x="494.677734" xlink:href="#DejaVuSans-102"/>
      <use x="529.882812" xlink:href="#DejaVuSans-32"/>
      <use x="561.669922" xlink:href="#DejaVuSans-80"/>
      <use x="621.925781" xlink:href="#DejaVuSans-101"/>
      <use x="683.449219" xlink:href="#DejaVuSans-111"/>
      <use x="744.630859" xlink:href="#DejaVuSans-112"/>
      <use x="808.107422" xlink:href="#DejaVuSans-108"/>
      <use x="835.890625" xlink:href="#DejaVuSans-101"/>
     </g>
    </g>
   </g>
   <g id="line2d_14">
    <path clip-path="url(#p72643eff56)" d="M 92.290909 55.8 
L 97.788272 55.8 
L 97.92923 56.052252 
L 99.338811 56.052252 
L 99.479769 56.304505 
L 102.439888 56.304505 
L 102.580846 56.556757 
L 103.426594 56.556757 
L 103.567552 56.809009 
L 111.320244 56.809009 
L 111.461202 57.061261 
L 111.884076 57.061261 
L 112.025034 57.313514 
L 112.870782 57.313514 
L 113.01174 57.565766 
L 113.293656 57.565766 
L 113.434614 57.818018 
L 129.221914 57.818018 
L 129.362872 58.07027 
L 135.142152 58.07027 
L 135.28311 58.322523 
L 135.424068 58.322523 
L 135.565026 58.574775 
L 137.256522 58.574775 
L 137.39748 58.827027 
L 138.10227 58.827027 
L 138.243228 59.079279 
L 143.88155 59.079279 
L 144.022508 59.331532 
L 145.150172 59.331532 
L 145.29113 59.583784 
L 153.325738 59.583784 
L 153.466696 59.836036 
L 156.285857 59.836036 
L 156.426815 60.088288 
L 163.051842 60.088288 
L 163.192801 60.340541 
L 170.522618 60.340541 
L 170.663576 60.592793 
L 170.945492 60.592793 
L 171.227409 61.097297 
L 172.355073 61.097297 
L 172.496031 61.34955 
L 181.235429 61.34955 
L 181.376387 61.601802 
L 183.067883 61.601802 
L 183.208841 61.854054 
L 183.631716 61.854054 
L 183.772674 62.106306 
L 185.182254 62.106306 
L 185.323212 62.358559 
L 185.887044 62.358559 
L 186.028002 62.610811 
L 186.309918 62.610811 
L 186.450876 62.863063 
L 188.142373 62.863063 
L 188.283331 63.115315 
L 188.424289 63.115315 
L 188.565247 63.367568 
L 191.94824 63.367568 
L 192.089198 63.61982 
L 192.793988 63.61982 
L 192.934946 63.872072 
L 193.639736 63.872072 
L 193.921652 64.376577 
L 196.740813 64.376577 
L 196.881771 64.628829 
L 197.445603 64.628829 
L 197.727519 65.133333 
L 197.868477 65.133333 
L 198.009435 65.385586 
L 198.432309 65.385586 
L 198.573267 65.637838 
L 198.855183 65.637838 
L 198.996141 65.89009 
L 199.278057 65.89009 
L 199.419015 66.394595 
L 200.969554 66.394595 
L 201.110512 66.646847 
L 201.95626 66.646847 
L 202.097218 66.899099 
L 202.238176 66.899099 
L 202.66105 67.655856 
L 203.36584 67.655856 
L 203.506798 67.908108 
L 204.916379 67.908108 
L 205.057337 68.16036 
L 208.44033 68.16036 
L 208.581288 68.412613 
L 210.272784 68.412613 
L 210.413742 68.664865 
L 214.219609 68.664865 
L 214.360567 68.917117 
L 214.642483 68.917117 
L 214.783441 69.169369 
L 215.065357 69.169369 
L 215.206315 69.421622 
L 217.320686 69.421622 
L 217.461644 69.673874 
L 217.602602 69.673874 
L 217.74356 69.926126 
L 219.012182 69.926126 
L 219.294098 70.430631 
L 222.677091 70.430631 
L 222.959007 70.935135 
L 225.355294 70.935135 
L 225.496252 71.187387 
L 226.201042 71.187387 
L 226.342 71.43964 
L 230.147867 71.43964 
L 230.288825 71.691892 
L 230.429783 71.691892 
L 230.570741 71.944144 
L 230.993615 71.944144 
L 231.134573 72.196396 
L 231.698405 72.196396 
L 231.839363 72.448649 
L 232.403196 72.448649 
L 232.544154 72.700901 
L 233.248944 72.700901 
L 233.389902 72.953153 
L 235.081398 72.953153 
L 235.504272 73.70991 
L 235.64523 73.70991 
L 235.786188 73.962162 
L 237.477685 73.962162 
L 237.618643 74.214414 
L 239.169181 74.214414 
L 239.310139 74.466667 
L 239.451097 74.466667 
L 239.592055 74.718919 
L 239.873971 74.718919 
L 240.155887 75.475676 
L 243.53888 75.475676 
L 243.679838 75.727928 
L 245.794209 75.727928 
L 245.935167 75.98018 
L 246.217083 75.98018 
L 246.358041 76.232432 
L 246.639957 76.232432 
L 246.780915 76.484685 
L 249.881992 76.484685 
L 250.02295 76.736937 
L 252.842111 76.736937 
L 252.983069 76.989189 
L 253.546901 76.989189 
L 253.687859 77.241441 
L 253.969775 77.241441 
L 254.110733 77.493694 
L 254.533607 77.493694 
L 254.674565 77.745946 
L 256.647978 77.745946 
L 256.788936 77.998198 
L 257.21181 77.998198 
L 257.352768 78.25045 
L 257.9166 78.25045 
L 258.057558 78.754955 
L 258.339474 78.754955 
L 258.480432 79.007207 
L 261.581509 79.007207 
L 261.722467 79.259459 
L 262.427257 79.259459 
L 262.709173 79.763964 
L 266.233124 79.763964 
L 266.374082 80.016216 
L 266.51504 80.520721 
L 267.360788 80.520721 
L 267.501746 80.772973 
L 269.757075 80.772973 
L 270.038991 81.277477 
L 270.320907 81.277477 
L 270.461865 81.52973 
L 271.166655 81.52973 
L 271.307613 81.781982 
L 272.717193 81.781982 
L 272.858152 82.034234 
L 273.985816 82.034234 
L 274.126774 82.538739 
L 275.677312 82.538739 
L 275.81827 83.043243 
L 278.919347 83.043243 
L 279.060305 83.295495 
L 279.201263 83.295495 
L 279.483179 83.8 
L 282.584256 83.8 
L 282.725214 84.052252 
L 284.557668 84.052252 
L 284.698626 84.304505 
L 286.953955 84.304505 
L 287.094913 84.809009 
L 287.235871 84.809009 
L 287.376829 85.061261 
L 287.658745 85.061261 
L 287.799703 85.565766 
L 289.4912 85.565766 
L 289.632158 86.07027 
L 291.323654 86.07027 
L 291.464612 86.322523 
L 293.860899 86.322523 
L 294.001857 86.574775 
L 298.08964 86.574775 
L 298.230598 86.827027 
L 299.358262 86.827027 
L 299.49922 87.079279 
L 301.895507 87.079279 
L 302.036465 87.331532 
L 302.600297 87.331532 
L 302.741255 87.583784 
L 303.164129 87.583784 
L 303.305087 87.836036 
L 304.573709 87.836036 
L 304.714667 88.088288 
L 304.855625 88.088288 
L 304.996583 88.340541 
L 306.406164 88.340541 
L 306.547122 88.592793 
L 307.251912 88.592793 
L 307.39287 88.845045 
L 307.815744 88.845045 
L 307.956702 89.097297 
L 308.238618 89.097297 
L 308.379576 89.601802 
L 309.648199 89.601802 
L 309.789157 89.854054 
L 310.493947 89.854054 
L 310.634905 90.106306 
L 311.480653 90.106306 
L 311.621611 90.358559 
L 312.044485 90.358559 
L 312.185443 90.610811 
L 313.87694 90.610811 
L 314.017898 90.863063 
L 315.004604 90.863063 
L 315.145562 91.115315 
L 316.414184 91.115315 
L 316.555142 91.367568 
L 316.6961 91.367568 
L 316.837058 91.872072 
L 319.797177 91.872072 
L 319.938135 92.124324 
L 320.079093 92.124324 
L 320.220051 92.376577 
L 320.361009 92.376577 
L 320.501967 92.628829 
L 321.488673 92.628829 
L 321.629632 92.881081 
L 322.334422 92.881081 
L 322.616338 93.385586 
L 323.462086 93.385586 
L 323.603044 93.637838 
L 326.422205 93.637838 
L 326.563163 93.89009 
L 326.704121 93.89009 
L 326.986037 94.394595 
L 327.126995 94.394595 
L 327.267953 94.646847 
L 327.690827 94.646847 
L 327.831785 94.899099 
L 328.113701 95.655856 
L 328.395617 95.655856 
L 328.536575 95.908108 
L 329.805198 95.908108 
L 329.946156 96.16036 
L 331.07382 96.16036 
L 331.214778 96.412613 
L 331.355736 96.412613 
L 331.496694 96.664865 
L 332.060526 96.664865 
L 332.201484 96.917117 
L 332.906274 96.917117 
L 333.047232 97.169369 
L 333.470106 97.169369 
L 333.611064 97.421622 
L 333.892981 97.421622 
L 334.033939 97.673874 
L 334.597771 97.673874 
L 334.738729 97.926126 
L 336.994057 97.926126 
L 337.135015 98.178378 
L 338.121722 98.178378 
L 338.26268 98.682883 
L 338.96747 98.682883 
L 339.108428 98.935135 
L 340.236092 98.935135 
L 340.37705 99.187387 
L 340.799924 99.187387 
L 340.940882 99.43964 
L 341.08184 99.43964 
L 341.222798 99.691892 
L 341.927588 99.691892 
L 342.209505 100.196396 
L 342.773337 100.196396 
L 342.914295 100.448649 
L 344.041959 100.448649 
L 344.182917 100.700901 
L 346.297288 100.700901 
L 346.438246 101.205405 
L 347.283994 101.205405 
L 347.424952 101.457658 
L 350.103155 101.457658 
L 350.244113 101.70991 
L 351.089861 101.70991 
L 351.230819 101.962162 
L 351.653693 101.962162 
L 351.794651 102.214414 
L 353.345189 102.214414 
L 353.486147 102.466667 
L 353.768063 102.466667 
L 353.909021 102.718919 
L 354.895728 102.718919 
L 355.036686 102.971171 
L 356.023392 102.971171 
L 356.305308 103.475676 
L 356.587224 103.475676 
L 356.728182 103.727928 
L 357.57393 103.727928 
L 357.714888 103.98018 
L 358.137762 103.98018 
L 358.278721 104.232432 
L 359.265427 104.232432 
L 359.406385 104.484685 
L 359.970217 104.484685 
L 360.111175 104.989189 
L 360.534049 104.989189 
L 360.675007 105.241441 
L 361.520755 105.241441 
L 361.661713 105.493694 
L 363.635126 105.493694 
L 363.917042 105.998198 
L 364.76279 105.998198 
L 365.044706 106.502703 
L 366.736203 106.502703 
L 366.877161 106.754955 
L 367.440993 106.754955 
L 367.581951 107.007207 
L 367.863867 107.007207 
L 368.004825 107.259459 
L 371.669734 107.259459 
L 371.810692 107.511712 
L 373.784104 107.511712 
L 373.925062 107.763964 
L 374.629853 107.763964 
L 374.770811 108.268468 
L 376.462307 108.268468 
L 376.603265 108.520721 
L 379.422426 108.520721 
L 379.563384 108.772973 
L 381.536796 108.772973 
L 381.677754 109.025225 
L 382.100628 109.025225 
L 382.241586 109.277477 
L 382.382544 109.277477 
L 382.523502 109.52973 
L 387.73895 109.52973 
L 387.879908 109.781982 
L 392.249607 109.781982 
L 392.390565 110.034234 
L 394.363977 110.034234 
L 394.504935 110.286486 
L 394.786851 110.286486 
L 394.92781 110.538739 
L 396.33739 110.538739 
L 396.478348 111.043243 
L 397.04218 111.043243 
L 397.183138 111.295495 
L 399.297509 111.295495 
L 399.438467 111.547748 
L 399.861341 111.547748 
L 400.002299 112.052252 
L 401.129963 112.052252 
L 401.270921 112.304505 
L 401.411879 112.304505 
L 401.552837 112.556757 
L 402.398585 112.556757 
L 402.539543 112.809009 
L 402.821459 112.809009 
L 402.962418 113.061261 
L 403.949124 113.061261 
L 404.090082 113.313514 
L 404.371998 113.313514 
L 404.512956 113.818018 
L 405.781578 113.818018 
L 405.922536 114.07027 
L 406.063494 114.07027 
L 406.204452 114.322523 
L 407.332117 114.322523 
L 407.473075 114.574775 
L 408.318823 114.574775 
L 408.459781 114.827027 
L 408.600739 114.827027 
L 408.741697 115.079279 
L 409.869361 115.079279 
L 410.010319 115.331532 
L 410.151277 115.331532 
L 410.292235 115.583784 
L 412.82948 115.583784 
L 412.970438 115.836036 
L 413.111396 115.836036 
L 413.252354 116.088288 
L 414.380018 116.088288 
L 414.520976 116.340541 
L 415.084808 116.340541 
L 415.225767 116.592793 
L 417.763011 116.592793 
L 417.903969 116.845045 
L 418.467801 116.845045 
L 418.608759 117.097297 
L 425.092829 117.097297 
L 425.233787 117.34955 
L 426.220493 117.34955 
L 426.502409 117.854054 
L 427.348158 117.854054 
L 427.489116 118.106306 
L 428.052948 118.106306 
L 428.193906 118.358559 
L 431.717857 118.358559 
L 431.858815 118.610811 
L 434.818933 118.610811 
L 434.959891 118.863063 
L 435.946598 118.863063 
L 436.087556 119.115315 
L 438.201926 119.115315 
L 438.342884 119.367568 
L 438.906716 119.367568 
L 439.047674 119.61982 
L 439.188632 119.61982 
L 439.32959 119.872072 
L 440.598213 119.872072 
L 440.739171 120.124324 
L 440.880129 120.124324 
L 441.021087 120.376577 
L 441.866835 120.376577 
L 442.148751 120.881081 
L 442.994499 120.881081 
L 443.135457 121.133333 
L 443.69929 121.133333 
L 443.840248 121.385586 
L 444.40408 121.385586 
L 444.545038 121.637838 
L 445.954618 121.637838 
L 446.236534 122.142342 
L 452.156772 122.142342 
L 452.29773 122.394595 
L 453.00252 122.394595 
L 453.143478 122.646847 
L 454.694016 122.646847 
L 454.834974 122.899099 
L 456.385513 122.899099 
L 456.526471 123.151351 
L 458.781799 123.151351 
L 458.922757 123.403604 
L 459.063715 123.403604 
L 459.204673 123.655856 
L 459.909464 123.655856 
L 460.050422 123.908108 
L 462.30575 123.908108 
L 462.446708 124.16036 
L 464.842995 124.16036 
L 464.983953 124.412613 
L 466.816407 124.412613 
L 466.957365 124.664865 
L 467.098323 124.664865 
L 467.239281 124.917117 
L 469.917484 124.917117 
L 470.058442 125.169369 
L 471.327064 125.169369 
L 471.468022 125.421622 
L 472.031854 125.421622 
L 472.172813 125.673874 
L 474.710057 125.673874 
L 474.851015 125.926126 
L 475.837721 125.926126 
L 476.119638 126.682883 
L 477.529218 126.682883 
L 477.811134 127.187387 
L 478.79784 127.187387 
L 478.938798 127.43964 
L 480.489337 127.43964 
L 480.630295 127.691892 
L 481.476043 127.691892 
L 481.757959 128.196396 
L 481.898917 128.196396 
L 482.039875 128.448649 
L 482.321791 128.448649 
L 482.462749 128.700901 
L 483.590413 128.700901 
L 483.731371 128.953153 
L 485.422868 128.953153 
L 485.563826 129.205405 
L 485.9867 129.205405 
L 486.127658 129.457658 
L 486.268616 129.457658 
L 486.409574 129.70991 
L 487.537238 129.70991 
L 487.819154 130.214414 
L 488.946819 130.214414 
L 489.087777 130.466667 
L 490.074483 130.466667 
L 490.215441 130.971171 
L 492.47077 130.971171 
L 492.611728 131.223423 
L 494.58514 131.223423 
L 494.726098 131.475676 
L 494.867056 131.475676 
L 495.008014 131.727928 
L 495.148972 131.727928 
L 495.28993 131.98018 
L 495.430888 131.98018 
L 495.571846 132.232432 
L 495.99472 132.232432 
L 496.135678 132.484685 
L 498.109091 132.484685 
L 498.109091 132.484685 
" style="fill:none;stroke:#1f77b4;stroke-linecap:square;stroke-width:1.5;"/>
   </g>
   <g id="line2d_15">
    <path clip-path="url(#p72643eff56)" d="M 92.290909 307.547748 
L 97.788272 307.547748 
L 97.92923 307.295495 
L 99.338811 307.295495 
L 99.479769 307.043243 
L 102.439888 307.043243 
L 102.580846 306.790991 
L 103.426594 306.790991 
L 103.567552 306.538739 
L 111.320244 306.538739 
L 111.461202 306.286486 
L 111.884076 306.286486 
L 112.025034 306.034234 
L 112.870782 306.034234 
L 113.01174 305.781982 
L 113.293656 305.781982 
L 113.434614 305.52973 
L 129.221914 305.52973 
L 129.362872 305.277477 
L 135.142152 305.277477 
L 135.28311 305.025225 
L 135.424068 305.025225 
L 135.565026 304.772973 
L 137.256522 304.772973 
L 137.39748 304.520721 
L 138.10227 304.520721 
L 138.243228 304.268468 
L 139.511851 304.268468 
L 139.652809 304.520721 
L 143.88155 304.520721 
L 144.022508 304.268468 
L 145.150172 304.268468 
L 145.29113 304.016216 
L 145.432088 304.268468 
L 146.841669 304.268468 
L 146.982627 304.520721 
L 149.942745 304.520721 
L 150.083703 304.772973 
L 150.929452 304.772973 
L 151.07041 305.025225 
L 153.325738 305.025225 
L 153.466696 304.772973 
L 156.285857 304.772973 
L 156.426815 304.520721 
L 158.823101 304.520721 
L 158.964059 304.772973 
L 159.386934 304.772973 
L 159.527892 305.025225 
L 160.37364 305.025225 
L 160.514598 305.277477 
L 160.796514 305.277477 
L 160.937472 305.52973 
L 163.051842 305.52973 
L 163.192801 305.277477 
L 170.522618 305.277477 
L 170.663576 305.025225 
L 170.945492 305.025225 
L 171.227409 304.520721 
L 172.355073 304.520721 
L 172.496031 304.268468 
L 176.724772 304.268468 
L 176.86573 304.520721 
L 181.235429 304.520721 
L 181.376387 304.268468 
L 182.645009 304.268468 
L 182.785967 304.520721 
L 182.926925 304.520721 
L 183.067883 304.772973 
L 183.208841 304.520721 
L 183.631716 304.520721 
L 183.772674 304.268468 
L 184.75938 304.268468 
L 184.900338 304.520721 
L 185.182254 304.520721 
L 185.323212 304.268468 
L 185.605128 304.268468 
L 185.746086 304.520721 
L 185.887044 304.520721 
L 186.028002 304.268468 
L 186.309918 304.268468 
L 186.450876 304.016216 
L 188.142373 304.016216 
L 188.283331 303.763964 
L 188.424289 303.763964 
L 188.565247 303.511712 
L 191.384407 303.511712 
L 191.525365 303.763964 
L 191.94824 303.763964 
L 192.089198 303.511712 
L 192.65303 303.511712 
L 192.793988 303.763964 
L 192.934946 303.511712 
L 193.639736 303.511712 
L 193.921652 303.007207 
L 196.740813 303.007207 
L 196.881771 302.754955 
L 197.445603 302.754955 
L 197.727519 302.25045 
L 197.868477 302.25045 
L 198.009435 301.998198 
L 198.432309 301.998198 
L 198.573267 301.745946 
L 198.855183 301.745946 
L 198.996141 301.493694 
L 199.278057 301.493694 
L 199.419015 300.989189 
L 200.828596 300.989189 
L 200.969554 301.241441 
L 201.110512 300.989189 
L 201.95626 300.989189 
L 202.097218 300.736937 
L 202.238176 300.736937 
L 202.66105 299.98018 
L 203.36584 299.98018 
L 203.506798 299.727928 
L 203.788715 299.727928 
L 203.929673 299.98018 
L 204.916379 299.98018 
L 205.057337 299.727928 
L 208.44033 299.727928 
L 208.581288 299.475676 
L 210.272784 299.475676 
L 210.413742 299.223423 
L 210.5547 299.223423 
L 210.695658 299.475676 
L 214.219609 299.475676 
L 214.360567 299.223423 
L 214.642483 299.223423 
L 214.783441 298.971171 
L 215.065357 298.971171 
L 215.206315 298.718919 
L 217.320686 298.718919 
L 217.461644 298.466667 
L 217.602602 298.466667 
L 217.74356 298.214414 
L 218.025476 298.214414 
L 218.166434 298.466667 
L 218.44835 298.466667 
L 218.730266 298.971171 
L 219.012182 298.971171 
L 219.294098 298.466667 
L 219.85793 298.466667 
L 219.998889 298.718919 
L 222.677091 298.718919 
L 222.959007 298.214414 
L 225.355294 298.214414 
L 225.496252 297.962162 
L 226.201042 297.962162 
L 226.342 297.70991 
L 228.738287 297.70991 
L 228.879245 297.962162 
L 230.147867 297.962162 
L 230.288825 297.70991 
L 230.429783 297.70991 
L 230.570741 297.457658 
L 230.711699 297.70991 
L 230.993615 297.70991 
L 231.134573 297.457658 
L 231.275531 297.70991 
L 231.698405 297.70991 
L 231.839363 297.457658 
L 232.403196 297.457658 
L 232.544154 297.205405 
L 232.685112 297.205405 
L 232.82607 297.457658 
L 233.248944 297.457658 
L 233.389902 297.205405 
L 233.53086 297.457658 
L 233.812776 297.457658 
L 233.953734 297.70991 
L 235.081398 297.70991 
L 235.504272 296.953153 
L 235.927146 296.953153 
L 236.068104 297.205405 
L 237.477685 297.205405 
L 237.618643 296.953153 
L 239.169181 296.953153 
L 239.310139 296.700901 
L 239.873971 296.700901 
L 240.155887 295.944144 
L 240.296845 295.944144 
L 240.437804 296.196396 
L 241.142594 296.196396 
L 241.42451 296.700901 
L 243.53888 296.700901 
L 243.679838 296.448649 
L 244.24367 296.448649 
L 244.384629 296.700901 
L 244.948461 296.700901 
L 245.230377 297.205405 
L 245.371335 297.205405 
L 245.512293 297.457658 
L 245.794209 297.457658 
L 245.935167 297.205405 
L 246.076125 297.457658 
L 246.217083 297.457658 
L 246.358041 297.205405 
L 246.498999 297.457658 
L 246.639957 297.457658 
L 246.780915 297.205405 
L 246.921873 297.70991 
L 248.472412 297.70991 
L 248.61337 297.962162 
L 249.459118 297.962162 
L 249.600076 298.214414 
L 249.741034 298.214414 
L 249.881992 298.466667 
L 250.02295 298.466667 
L 250.163908 298.718919 
L 250.868698 298.718919 
L 251.009656 298.971171 
L 252.419236 298.971171 
L 252.560195 299.223423 
L 252.842111 299.223423 
L 252.983069 298.971171 
L 253.546901 298.971171 
L 253.687859 298.718919 
L 253.969775 298.718919 
L 254.110733 298.466667 
L 254.533607 298.466667 
L 254.674565 298.214414 
L 255.943187 298.214414 
L 256.084145 298.466667 
L 256.647978 298.466667 
L 256.788936 298.214414 
L 257.21181 298.214414 
L 257.352768 297.962162 
L 257.775642 297.962162 
L 257.9166 298.214414 
L 258.057558 297.70991 
L 258.339474 297.70991 
L 258.480432 297.457658 
L 261.581509 297.457658 
L 261.722467 297.205405 
L 261.863425 297.457658 
L 262.145341 297.457658 
L 262.286299 297.70991 
L 262.427257 297.70991 
L 262.568215 297.457658 
L 264.823544 297.457658 
L 264.964502 297.70991 
L 265.10546 297.70991 
L 265.246418 297.962162 
L 266.233124 297.962162 
L 266.374082 297.70991 
L 266.51504 297.205405 
L 266.796956 297.70991 
L 267.360788 297.70991 
L 267.501746 297.457658 
L 269.757075 297.457658 
L 270.038991 296.953153 
L 270.179949 296.953153 
L 270.320907 297.205405 
L 271.166655 297.205405 
L 271.307613 296.953153 
L 272.717193 296.953153 
L 272.858152 296.700901 
L 272.99911 296.953153 
L 273.7039 296.953153 
L 273.844858 297.205405 
L 273.985816 297.205405 
L 274.126774 296.700901 
L 275.677312 296.700901 
L 275.81827 296.196396 
L 277.650725 296.196396 
L 277.791683 296.448649 
L 277.932641 296.448649 
L 278.073599 296.700901 
L 278.496473 296.700901 
L 278.637431 296.953153 
L 278.919347 296.953153 
L 279.060305 296.700901 
L 279.342221 296.700901 
L 279.483179 296.448649 
L 279.906053 296.448649 
L 280.047011 296.700901 
L 280.751801 296.700901 
L 280.892759 296.953153 
L 282.725214 296.953153 
L 283.00713 297.457658 
L 283.148088 297.457658 
L 283.289046 297.70991 
L 284.557668 297.70991 
L 284.698626 297.457658 
L 284.980542 297.457658 
L 285.121501 297.70991 
L 286.672039 297.70991 
L 286.812997 297.962162 
L 286.953955 297.962162 
L 287.094913 297.70991 
L 287.235871 297.70991 
L 287.376829 297.457658 
L 287.658745 298.214414 
L 287.799703 297.70991 
L 289.4912 297.70991 
L 289.632158 297.205405 
L 291.041738 297.205405 
L 291.182696 297.457658 
L 291.323654 297.457658 
L 291.464612 297.205405 
L 293.297067 297.205405 
L 293.438025 297.457658 
L 293.719941 297.457658 
L 293.860899 297.70991 
L 294.001857 297.457658 
L 294.142815 297.457658 
L 294.283773 297.70991 
L 297.38485 297.70991 
L 297.525808 297.962162 
L 298.08964 297.962162 
L 298.230598 297.70991 
L 299.358262 297.70991 
L 299.49922 297.457658 
L 300.344968 297.457658 
L 300.485926 297.70991 
L 301.049758 297.70991 
L 301.190716 297.962162 
L 301.472633 297.962162 
L 301.613591 298.214414 
L 301.895507 298.214414 
L 302.036465 297.962162 
L 302.177423 298.214414 
L 302.600297 298.214414 
L 302.741255 297.962162 
L 303.164129 297.962162 
L 303.305087 297.70991 
L 304.150835 297.70991 
L 304.291793 297.962162 
L 304.573709 297.962162 
L 304.714667 297.70991 
L 304.855625 297.962162 
L 304.996583 297.70991 
L 305.419458 297.70991 
L 305.560416 298.214414 
L 305.842332 298.214414 
L 305.98329 298.466667 
L 306.406164 298.466667 
L 306.547122 298.214414 
L 307.251912 298.214414 
L 307.39287 297.962162 
L 307.815744 297.962162 
L 307.956702 297.70991 
L 308.238618 297.70991 
L 308.379576 297.205405 
L 309.084366 297.205405 
L 309.225324 297.457658 
L 309.648199 297.457658 
L 309.789157 297.205405 
L 309.930115 297.205405 
L 310.212031 297.70991 
L 310.493947 297.70991 
L 310.634905 297.457658 
L 311.480653 297.457658 
L 311.621611 297.205405 
L 312.044485 297.205405 
L 312.185443 296.953153 
L 313.735982 296.953153 
L 314.017898 297.457658 
L 314.863646 297.457658 
L 315.004604 297.70991 
L 315.145562 297.457658 
L 316.414184 297.457658 
L 316.555142 297.205405 
L 316.6961 297.205405 
L 316.837058 296.700901 
L 317.259932 296.700901 
L 317.541848 297.205405 
L 317.823765 297.205405 
L 317.964723 297.457658 
L 318.669513 297.457658 
L 318.810471 297.70991 
L 319.797177 297.70991 
L 319.938135 297.457658 
L 320.079093 297.457658 
L 320.220051 297.205405 
L 320.361009 297.457658 
L 320.501967 297.205405 
L 321.488673 297.205405 
L 321.629632 297.457658 
L 322.334422 297.457658 
L 322.616338 296.953153 
L 323.18017 296.953153 
L 323.321128 297.457658 
L 323.462086 297.457658 
L 323.603044 297.205405 
L 327.126995 297.205405 
L 327.267953 296.953153 
L 327.690827 296.953153 
L 327.831785 296.700901 
L 328.113701 295.944144 
L 328.395617 295.944144 
L 328.536575 295.691892 
L 329.805198 295.691892 
L 329.946156 295.43964 
L 330.087114 295.43964 
L 330.228072 295.691892 
L 331.07382 295.691892 
L 331.214778 295.43964 
L 331.355736 295.43964 
L 331.496694 295.187387 
L 332.906274 295.187387 
L 333.047232 294.935135 
L 333.470106 294.935135 
L 333.611064 294.682883 
L 333.892981 294.682883 
L 334.033939 294.430631 
L 334.456813 294.430631 
L 334.597771 294.935135 
L 334.738729 294.682883 
L 334.879687 294.935135 
L 335.161603 294.935135 
L 335.302561 295.43964 
L 336.994057 295.43964 
L 337.135015 295.691892 
L 338.121722 295.691892 
L 338.26268 295.187387 
L 338.826512 295.187387 
L 338.96747 295.43964 
L 339.108428 295.187387 
L 340.236092 295.187387 
L 340.37705 294.935135 
L 340.799924 294.935135 
L 340.940882 294.682883 
L 341.08184 294.682883 
L 341.222798 294.430631 
L 341.363756 294.430631 
L 341.504714 294.682883 
L 341.927588 294.682883 
L 342.209505 294.178378 
L 342.773337 294.178378 
L 342.914295 293.926126 
L 344.041959 293.926126 
L 344.182917 293.673874 
L 345.592497 293.673874 
L 345.733455 293.926126 
L 346.297288 293.926126 
L 346.438246 293.421622 
L 346.86112 293.421622 
L 347.002078 293.673874 
L 347.283994 293.673874 
L 347.424952 293.421622 
L 349.398364 293.421622 
L 349.539322 293.673874 
L 350.666987 293.673874 
L 350.807945 293.926126 
L 351.089861 293.926126 
L 351.230819 293.673874 
L 351.653693 293.673874 
L 351.794651 293.421622 
L 352.076567 293.421622 
L 352.217525 293.673874 
L 352.358483 293.673874 
L 352.499441 293.926126 
L 353.345189 293.926126 
L 353.486147 293.673874 
L 353.768063 293.673874 
L 353.909021 293.421622 
L 354.049979 293.673874 
L 354.75477 293.673874 
L 354.895728 293.926126 
L 355.036686 293.673874 
L 355.318602 293.673874 
L 355.45956 293.926126 
L 355.741476 293.926126 
L 355.882434 294.430631 
L 356.023392 294.430631 
L 356.305308 293.926126 
L 356.587224 293.926126 
L 356.728182 293.673874 
L 357.151056 293.673874 
L 357.292014 293.926126 
L 357.57393 293.926126 
L 357.714888 293.673874 
L 357.996804 293.673874 
L 358.137762 293.926126 
L 358.278721 293.673874 
L 358.983511 293.673874 
L 359.124469 293.926126 
L 359.265427 293.926126 
L 359.406385 293.673874 
L 359.547343 293.673874 
L 359.688301 293.926126 
L 359.970217 293.926126 
L 360.111175 293.421622 
L 360.534049 293.421622 
L 360.675007 293.169369 
L 361.379797 293.169369 
L 361.520755 293.421622 
L 361.661713 293.169369 
L 362.507462 293.169369 
L 362.64842 293.421622 
L 363.635126 293.421622 
L 363.917042 292.917117 
L 364.058 293.169369 
L 364.198958 293.169369 
L 364.339916 293.673874 
L 364.76279 293.673874 
L 365.044706 293.169369 
L 366.736203 293.169369 
L 366.877161 292.917117 
L 367.300035 292.917117 
L 367.440993 293.169369 
L 367.581951 292.917117 
L 367.722909 293.169369 
L 368.991531 293.169369 
L 369.132489 293.421622 
L 369.837279 293.421622 
L 370.119195 293.926126 
L 370.964944 293.926126 
L 371.105902 294.178378 
L 371.669734 294.178378 
L 371.810692 293.926126 
L 373.784104 293.926126 
L 373.925062 293.673874 
L 374.06602 293.926126 
L 374.206978 293.926126 
L 374.488895 294.430631 
L 374.629853 294.430631 
L 374.770811 294.178378 
L 375.193685 294.178378 
L 375.334643 294.430631 
L 375.616559 295.187387 
L 375.898475 295.187387 
L 376.039433 295.43964 
L 376.462307 295.43964 
L 376.603265 295.187387 
L 377.308055 295.187387 
L 377.449013 295.43964 
L 378.576678 295.43964 
L 378.717636 295.691892 
L 378.858594 295.691892 
L 378.999552 295.944144 
L 379.422426 295.944144 
L 379.563384 295.691892 
L 379.704342 295.944144 
L 380.409132 295.944144 
L 380.55009 296.196396 
L 380.972964 296.196396 
L 381.113922 296.448649 
L 381.395838 296.448649 
L 381.536796 296.700901 
L 381.677754 296.448649 
L 382.382544 296.448649 
L 382.523502 296.196396 
L 384.496915 296.196396 
L 384.637873 296.448649 
L 385.624579 296.448649 
L 385.765537 296.953153 
L 386.470327 296.953153 
L 386.611285 297.205405 
L 388.302782 297.205405 
L 388.44374 297.457658 
L 388.584698 297.457658 
L 388.725656 297.70991 
L 389.430446 297.70991 
L 389.712362 298.214414 
L 390.276194 298.214414 
L 390.417152 298.466667 
L 391.544817 298.466667 
L 391.685775 298.718919 
L 392.249607 298.718919 
L 392.390565 298.466667 
L 393.800145 298.466667 
L 393.941103 298.971171 
L 394.363977 298.971171 
L 394.504935 298.718919 
L 396.33739 298.718919 
L 396.478348 298.214414 
L 397.04218 298.214414 
L 397.183138 297.962162 
L 397.606012 297.962162 
L 397.74697 298.214414 
L 398.592718 298.214414 
L 398.733676 298.466667 
L 399.156551 298.466667 
L 399.297509 298.718919 
L 399.438467 298.466667 
L 399.861341 298.466667 
L 400.002299 297.962162 
L 400.848047 297.962162 
L 400.989005 298.214414 
L 401.129963 298.214414 
L 401.270921 297.962162 
L 401.411879 298.214414 
L 401.552837 297.962162 
L 402.821459 297.962162 
L 402.962418 297.70991 
L 403.52625 297.70991 
L 403.808166 298.214414 
L 403.949124 298.214414 
L 404.090082 297.962162 
L 404.23104 298.214414 
L 404.371998 298.214414 
L 404.512956 297.70991 
L 405.076788 297.70991 
L 405.217746 297.962162 
L 405.64062 297.962162 
L 405.781578 298.214414 
L 405.922536 297.962162 
L 406.063494 297.962162 
L 406.204452 297.70991 
L 406.768284 297.70991 
L 406.909242 297.962162 
L 407.332117 297.962162 
L 407.473075 297.70991 
L 407.614033 298.214414 
L 408.036907 298.214414 
L 408.177865 298.466667 
L 408.318823 298.466667 
L 408.459781 298.214414 
L 408.600739 298.214414 
L 408.741697 297.962162 
L 409.023613 297.962162 
L 409.164571 298.214414 
L 409.869361 298.214414 
L 410.010319 297.962162 
L 410.151277 297.962162 
L 410.292235 297.70991 
L 411.137984 297.70991 
L 411.4199 298.214414 
L 412.265648 298.214414 
L 412.547564 298.718919 
L 412.82948 298.718919 
L 412.970438 298.466667 
L 413.111396 298.466667 
L 413.252354 298.214414 
L 414.23906 298.214414 
L 414.380018 298.466667 
L 414.520976 298.214414 
L 414.94385 298.214414 
L 415.084808 298.466667 
L 415.225767 298.214414 
L 415.366725 298.214414 
L 415.507683 298.466667 
L 417.763011 298.466667 
L 417.903969 298.214414 
L 418.467801 298.214414 
L 418.608759 297.962162 
L 419.172591 297.962162 
L 419.31355 298.214414 
L 421.286962 298.214414 
L 421.42792 298.466667 
L 422.13271 298.466667 
L 422.273668 298.971171 
L 423.965165 298.971171 
L 424.106123 299.223423 
L 425.092829 299.223423 
L 425.233787 298.971171 
L 426.220493 298.971171 
L 426.502409 298.466667 
L 426.925283 298.466667 
L 427.066241 298.718919 
L 427.348158 298.718919 
L 427.489116 298.466667 
L 428.052948 298.466667 
L 428.193906 298.214414 
L 429.039654 298.214414 
L 429.180612 298.466667 
L 429.603486 298.466667 
L 429.744444 298.718919 
L 429.885402 298.718919 
L 430.02636 298.971171 
L 431.717857 298.971171 
L 431.858815 298.718919 
L 434.818933 298.718919 
L 434.959891 298.466667 
L 435.241807 298.466667 
L 435.382765 298.718919 
L 435.946598 298.718919 
L 436.087556 298.466667 
L 438.201926 298.466667 
L 438.342884 298.214414 
L 438.906716 298.214414 
L 439.047674 297.962162 
L 439.188632 297.962162 
L 439.32959 297.70991 
L 439.752465 297.70991 
L 439.893423 297.962162 
L 440.598213 297.962162 
L 440.739171 297.70991 
L 440.880129 297.70991 
L 441.021087 297.457658 
L 442.007793 297.457658 
L 442.148751 297.205405 
L 442.289709 297.205405 
L 442.430667 297.457658 
L 442.994499 297.457658 
L 443.135457 297.205405 
L 443.69929 297.205405 
L 443.840248 296.953153 
L 443.981206 297.457658 
L 444.40408 297.457658 
L 444.545038 297.205405 
L 444.685996 297.457658 
L 445.954618 297.457658 
L 446.236534 296.953153 
L 446.800366 296.953153 
L 446.941324 297.205405 
L 447.364198 297.205405 
L 447.505156 297.70991 
L 448.632821 297.70991 
L 448.773779 297.962162 
L 448.914737 297.962162 
L 449.055695 298.214414 
L 449.901443 298.214414 
L 450.042401 298.466667 
L 450.324317 298.466667 
L 450.465275 298.718919 
L 451.451981 298.718919 
L 451.592939 298.971171 
L 451.874856 298.971171 
L 452.015814 299.475676 
L 452.156772 299.475676 
L 452.29773 299.223423 
L 453.00252 299.223423 
L 453.143478 298.971171 
L 453.284436 298.971171 
L 453.425394 299.223423 
L 453.566352 299.223423 
L 453.70731 299.475676 
L 454.694016 299.475676 
L 454.834974 299.223423 
L 454.975932 299.475676 
L 455.821681 299.475676 
L 455.962639 299.727928 
L 456.103597 299.727928 
L 456.244555 299.98018 
L 456.385513 299.98018 
L 456.526471 299.727928 
L 457.372219 299.727928 
L 457.513177 299.98018 
L 457.654135 299.98018 
L 457.795093 300.232432 
L 458.781799 300.232432 
L 458.922757 299.98018 
L 459.063715 299.98018 
L 459.204673 299.727928 
L 459.909464 299.727928 
L 460.050422 299.475676 
L 460.332338 299.475676 
L 460.473296 299.727928 
L 460.614254 299.727928 
L 460.755212 299.98018 
L 461.882876 299.98018 
L 462.023834 300.232432 
L 462.30575 300.232432 
L 462.446708 299.98018 
L 462.587666 299.98018 
L 462.728624 300.232432 
L 464.842995 300.232432 
L 464.983953 299.98018 
L 465.265869 299.98018 
L 465.406827 300.232432 
L 465.970659 300.232432 
L 466.111617 300.484685 
L 466.816407 300.484685 
L 466.957365 300.232432 
L 467.098323 300.232432 
L 467.239281 299.98018 
L 469.917484 299.98018 
L 470.058442 299.727928 
L 471.327064 299.727928 
L 471.468022 299.475676 
L 472.031854 299.475676 
L 472.172813 299.223423 
L 472.595687 299.223423 
L 472.736645 299.475676 
L 473.723351 299.475676 
L 474.005267 299.98018 
L 474.710057 299.98018 
L 474.851015 299.727928 
L 474.991973 299.98018 
L 475.555805 299.98018 
L 475.696763 300.232432 
L 475.837721 300.232432 
L 476.119638 299.475676 
L 477.529218 299.475676 
L 477.811134 298.971171 
L 478.79784 298.971171 
L 478.938798 298.718919 
L 479.220714 298.718919 
L 479.361672 298.971171 
L 480.489337 298.971171 
L 480.630295 298.718919 
L 481.476043 298.718919 
L 481.757959 298.214414 
L 481.898917 298.214414 
L 482.039875 297.962162 
L 483.449455 297.962162 
L 483.590413 298.214414 
L 483.731371 297.962162 
L 485.422868 297.962162 
L 485.563826 297.70991 
L 485.704784 297.70991 
L 485.845742 297.962162 
L 485.9867 297.962162 
L 486.127658 297.70991 
L 486.268616 297.70991 
L 486.409574 297.457658 
L 486.550532 297.70991 
L 486.69149 297.70991 
L 486.832448 297.962162 
L 487.537238 297.962162 
L 487.819154 297.457658 
L 488.10107 297.457658 
L 488.242028 297.70991 
L 488.382987 297.70991 
L 488.523945 297.962162 
L 488.946819 297.962162 
L 489.087777 297.70991 
L 489.369693 297.70991 
L 489.651609 298.214414 
L 490.074483 298.214414 
L 490.215441 297.70991 
L 490.497357 297.70991 
L 490.638315 297.962162 
L 491.202147 297.962162 
L 491.343105 298.214414 
L 491.906937 298.214414 
L 492.047895 298.466667 
L 492.47077 298.466667 
L 492.611728 298.214414 
L 493.457476 298.214414 
L 493.739392 298.718919 
L 494.58514 298.718919 
L 494.726098 298.466667 
L 494.867056 298.466667 
L 495.008014 298.214414 
L 495.148972 298.214414 
L 495.28993 297.962162 
L 495.430888 297.962162 
L 495.571846 297.70991 
L 495.99472 297.70991 
L 496.135678 297.457658 
L 498.109091 297.457658 
L 498.109091 297.457658 
" style="fill:none;stroke:#ff7f0e;stroke-linecap:square;stroke-width:1.5;"/>
   </g>
   <g id="line2d_16">
    <path clip-path="url(#p72643eff56)" d="M 92.290909 307.8 
L 139.511851 307.8 
L 139.652809 307.547748 
L 145.29113 307.547748 
L 145.432088 307.295495 
L 146.841669 307.295495 
L 146.982627 307.043243 
L 149.942745 307.043243 
L 150.083703 306.790991 
L 150.929452 306.790991 
L 151.07041 306.538739 
L 158.823101 306.538739 
L 158.964059 306.286486 
L 159.386934 306.286486 
L 159.527892 306.034234 
L 160.37364 306.034234 
L 160.514598 305.781982 
L 160.796514 305.781982 
L 160.937472 305.52973 
L 176.724772 305.52973 
L 176.86573 305.277477 
L 182.645009 305.277477 
L 182.785967 305.025225 
L 182.926925 305.025225 
L 183.067883 304.772973 
L 184.75938 304.772973 
L 184.900338 304.520721 
L 185.605128 304.520721 
L 185.746086 304.268468 
L 191.384407 304.268468 
L 191.525365 304.016216 
L 192.65303 304.016216 
L 192.793988 303.763964 
L 200.828596 303.763964 
L 200.969554 303.511712 
L 203.788715 303.511712 
L 203.929673 303.259459 
L 210.5547 303.259459 
L 210.695658 303.007207 
L 218.025476 303.007207 
L 218.166434 302.754955 
L 218.44835 302.754955 
L 218.730266 302.25045 
L 219.85793 302.25045 
L 219.998889 301.998198 
L 228.738287 301.998198 
L 228.879245 301.745946 
L 230.570741 301.745946 
L 230.711699 301.493694 
L 231.134573 301.493694 
L 231.275531 301.241441 
L 232.685112 301.241441 
L 232.82607 300.989189 
L 233.389902 300.989189 
L 233.53086 300.736937 
L 233.812776 300.736937 
L 233.953734 300.484685 
L 235.64523 300.484685 
L 235.786188 300.232432 
L 235.927146 300.232432 
L 236.068104 299.98018 
L 239.451097 299.98018 
L 239.592055 299.727928 
L 240.296845 299.727928 
L 240.437804 299.475676 
L 241.142594 299.475676 
L 241.42451 298.971171 
L 244.24367 298.971171 
L 244.384629 298.718919 
L 244.948461 298.718919 
L 245.230377 298.214414 
L 245.371335 298.214414 
L 245.512293 297.962162 
L 245.935167 297.962162 
L 246.076125 297.70991 
L 246.358041 297.70991 
L 246.498999 297.457658 
L 246.780915 297.457658 
L 246.921873 296.953153 
L 248.472412 296.953153 
L 248.61337 296.700901 
L 249.459118 296.700901 
L 249.600076 296.448649 
L 249.741034 296.448649 
L 250.163908 295.691892 
L 250.868698 295.691892 
L 251.009656 295.43964 
L 252.419236 295.43964 
L 252.560195 295.187387 
L 255.943187 295.187387 
L 256.084145 294.935135 
L 257.775642 294.935135 
L 257.9166 294.682883 
L 261.722467 294.682883 
L 261.863425 294.430631 
L 262.145341 294.430631 
L 262.286299 294.178378 
L 262.568215 294.178378 
L 262.709173 293.926126 
L 264.823544 293.926126 
L 264.964502 293.673874 
L 265.10546 293.673874 
L 265.246418 293.421622 
L 266.51504 293.421622 
L 266.796956 292.917117 
L 270.179949 292.917117 
L 270.461865 292.412613 
L 272.858152 292.412613 
L 272.99911 292.16036 
L 273.7039 292.16036 
L 273.844858 291.908108 
L 277.650725 291.908108 
L 277.791683 291.655856 
L 277.932641 291.655856 
L 278.073599 291.403604 
L 278.496473 291.403604 
L 278.637431 291.151351 
L 279.201263 291.151351 
L 279.342221 290.899099 
L 279.906053 290.899099 
L 280.047011 290.646847 
L 280.751801 290.646847 
L 280.892759 290.394595 
L 282.584256 290.394595 
L 283.00713 289.637838 
L 283.148088 289.637838 
L 283.289046 289.385586 
L 284.980542 289.385586 
L 285.121501 289.133333 
L 286.672039 289.133333 
L 286.812997 288.881081 
L 286.953955 288.881081 
L 287.094913 288.628829 
L 287.376829 288.628829 
L 287.658745 287.872072 
L 291.041738 287.872072 
L 291.182696 287.61982 
L 293.297067 287.61982 
L 293.438025 287.367568 
L 293.719941 287.367568 
L 293.860899 287.115315 
L 294.142815 287.115315 
L 294.283773 286.863063 
L 297.38485 286.863063 
L 297.525808 286.610811 
L 300.344968 286.610811 
L 300.485926 286.358559 
L 301.049758 286.358559 
L 301.190716 286.106306 
L 301.472633 286.106306 
L 301.613591 285.854054 
L 302.036465 285.854054 
L 302.177423 285.601802 
L 304.150835 285.601802 
L 304.291793 285.34955 
L 304.714667 285.34955 
L 304.855625 285.097297 
L 305.419458 285.097297 
L 305.560416 284.592793 
L 305.842332 284.592793 
L 305.98329 284.340541 
L 309.084366 284.340541 
L 309.225324 284.088288 
L 309.930115 284.088288 
L 310.212031 283.583784 
L 313.735982 283.583784 
L 313.87694 283.331532 
L 314.017898 282.827027 
L 314.863646 282.827027 
L 315.004604 282.574775 
L 317.259932 282.574775 
L 317.541848 282.07027 
L 317.823765 282.07027 
L 317.964723 281.818018 
L 318.669513 281.818018 
L 318.810471 281.565766 
L 320.220051 281.565766 
L 320.361009 281.313514 
L 321.488673 281.313514 
L 321.629632 280.809009 
L 323.18017 280.809009 
L 323.321128 280.304505 
L 326.422205 280.304505 
L 326.563163 280.052252 
L 326.704121 280.052252 
L 326.986037 279.547748 
L 330.087114 279.547748 
L 330.228072 279.295495 
L 332.060526 279.295495 
L 332.201484 279.043243 
L 334.456813 279.043243 
L 334.597771 278.538739 
L 334.738729 278.538739 
L 334.879687 278.286486 
L 335.161603 278.286486 
L 335.302561 277.781982 
L 336.994057 277.781982 
L 337.135015 277.277477 
L 338.826512 277.277477 
L 338.96747 277.025225 
L 341.363756 277.025225 
L 341.504714 276.772973 
L 345.592497 276.772973 
L 345.733455 276.520721 
L 346.86112 276.520721 
L 347.002078 276.268468 
L 349.398364 276.268468 
L 349.539322 276.016216 
L 350.103155 276.016216 
L 350.244113 275.763964 
L 350.666987 275.763964 
L 350.807945 275.511712 
L 352.076567 275.511712 
L 352.217525 275.259459 
L 352.358483 275.259459 
L 352.499441 275.007207 
L 353.909021 275.007207 
L 354.049979 274.754955 
L 354.75477 274.754955 
L 354.895728 274.502703 
L 355.318602 274.502703 
L 355.45956 274.25045 
L 355.741476 274.25045 
L 355.882434 273.745946 
L 357.151056 273.745946 
L 357.292014 273.493694 
L 357.996804 273.493694 
L 358.137762 273.241441 
L 358.983511 273.241441 
L 359.124469 272.989189 
L 359.547343 272.989189 
L 359.688301 272.736937 
L 361.379797 272.736937 
L 361.520755 272.484685 
L 362.507462 272.484685 
L 362.64842 272.232432 
L 363.917042 272.232432 
L 364.058 271.98018 
L 364.198958 271.98018 
L 364.339916 271.475676 
L 367.300035 271.475676 
L 367.440993 271.223423 
L 367.581951 271.223423 
L 367.722909 270.971171 
L 367.863867 270.971171 
L 368.004825 270.718919 
L 368.991531 270.718919 
L 369.132489 270.466667 
L 369.837279 270.466667 
L 370.119195 269.962162 
L 370.964944 269.962162 
L 371.105902 269.70991 
L 373.925062 269.70991 
L 374.06602 269.457658 
L 374.206978 269.457658 
L 374.488895 268.953153 
L 374.629853 268.953153 
L 374.770811 268.700901 
L 375.193685 268.700901 
L 375.334643 268.448649 
L 375.616559 267.691892 
L 375.898475 267.691892 
L 376.039433 267.43964 
L 377.308055 267.43964 
L 377.449013 267.187387 
L 378.576678 267.187387 
L 378.717636 266.935135 
L 378.858594 266.935135 
L 378.999552 266.682883 
L 379.563384 266.682883 
L 379.704342 266.430631 
L 380.409132 266.430631 
L 380.55009 266.178378 
L 380.972964 266.178378 
L 381.113922 265.926126 
L 381.395838 265.926126 
L 381.536796 265.673874 
L 382.100628 265.673874 
L 382.241586 265.421622 
L 384.496915 265.421622 
L 384.637873 265.169369 
L 385.624579 265.169369 
L 385.765537 264.664865 
L 386.470327 264.664865 
L 386.611285 264.412613 
L 387.73895 264.412613 
L 387.879908 264.16036 
L 388.302782 264.16036 
L 388.44374 263.908108 
L 388.584698 263.908108 
L 388.725656 263.655856 
L 389.430446 263.655856 
L 389.712362 263.151351 
L 390.276194 263.151351 
L 390.417152 262.899099 
L 391.544817 262.899099 
L 391.685775 262.646847 
L 393.800145 262.646847 
L 393.941103 262.142342 
L 394.786851 262.142342 
L 394.92781 261.89009 
L 397.606012 261.89009 
L 397.74697 261.637838 
L 398.592718 261.637838 
L 398.733676 261.385586 
L 399.156551 261.385586 
L 399.297509 261.133333 
L 400.848047 261.133333 
L 400.989005 260.881081 
L 401.270921 260.881081 
L 401.411879 260.628829 
L 402.398585 260.628829 
L 402.539543 260.376577 
L 403.52625 260.376577 
L 403.808166 259.872072 
L 404.090082 259.872072 
L 404.23104 259.61982 
L 405.076788 259.61982 
L 405.217746 259.367568 
L 405.64062 259.367568 
L 405.781578 259.115315 
L 406.768284 259.115315 
L 406.909242 258.863063 
L 407.473075 258.863063 
L 407.614033 258.358559 
L 408.036907 258.358559 
L 408.177865 258.106306 
L 409.023613 258.106306 
L 409.164571 257.854054 
L 411.137984 257.854054 
L 411.4199 257.34955 
L 412.265648 257.34955 
L 412.547564 256.845045 
L 414.23906 256.845045 
L 414.380018 256.592793 
L 414.94385 256.592793 
L 415.084808 256.340541 
L 415.366725 256.340541 
L 415.507683 256.088288 
L 419.172591 256.088288 
L 419.31355 255.836036 
L 421.286962 255.836036 
L 421.42792 255.583784 
L 422.13271 255.583784 
L 422.273668 255.079279 
L 423.965165 255.079279 
L 424.106123 254.827027 
L 426.925283 254.827027 
L 427.066241 254.574775 
L 429.039654 254.574775 
L 429.180612 254.322523 
L 429.603486 254.322523 
L 429.744444 254.07027 
L 429.885402 254.07027 
L 430.02636 253.818018 
L 435.241807 253.818018 
L 435.382765 253.565766 
L 439.752465 253.565766 
L 439.893423 253.313514 
L 441.866835 253.313514 
L 442.007793 253.061261 
L 442.289709 253.061261 
L 442.430667 252.809009 
L 443.840248 252.809009 
L 443.981206 252.304505 
L 444.545038 252.304505 
L 444.685996 252.052252 
L 446.800366 252.052252 
L 446.941324 251.8 
L 447.364198 251.8 
L 447.505156 251.295495 
L 448.632821 251.295495 
L 448.773779 251.043243 
L 448.914737 251.043243 
L 449.055695 250.790991 
L 449.901443 250.790991 
L 450.042401 250.538739 
L 450.324317 250.538739 
L 450.465275 250.286486 
L 451.451981 250.286486 
L 451.592939 250.034234 
L 451.874856 250.034234 
L 452.015814 249.52973 
L 453.284436 249.52973 
L 453.425394 249.277477 
L 453.566352 249.277477 
L 453.70731 249.025225 
L 454.834974 249.025225 
L 454.975932 248.772973 
L 455.821681 248.772973 
L 455.962639 248.520721 
L 456.103597 248.520721 
L 456.244555 248.268468 
L 457.372219 248.268468 
L 457.513177 248.016216 
L 457.654135 248.016216 
L 457.795093 247.763964 
L 460.332338 247.763964 
L 460.473296 247.511712 
L 460.614254 247.511712 
L 460.755212 247.259459 
L 461.882876 247.259459 
L 462.023834 247.007207 
L 462.587666 247.007207 
L 462.728624 246.754955 
L 465.265869 246.754955 
L 465.406827 246.502703 
L 465.970659 246.502703 
L 466.111617 246.25045 
L 472.595687 246.25045 
L 472.736645 245.998198 
L 473.723351 245.998198 
L 474.005267 245.493694 
L 474.851015 245.493694 
L 474.991973 245.241441 
L 475.555805 245.241441 
L 475.696763 244.989189 
L 479.220714 244.989189 
L 479.361672 244.736937 
L 482.321791 244.736937 
L 482.462749 244.484685 
L 483.449455 244.484685 
L 483.590413 244.232432 
L 485.704784 244.232432 
L 485.845742 243.98018 
L 486.409574 243.98018 
L 486.550532 243.727928 
L 486.69149 243.727928 
L 486.832448 243.475676 
L 488.10107 243.475676 
L 488.242028 243.223423 
L 488.382987 243.223423 
L 488.523945 242.971171 
L 489.369693 242.971171 
L 489.651609 242.466667 
L 490.497357 242.466667 
L 490.638315 242.214414 
L 491.202147 242.214414 
L 491.343105 241.962162 
L 491.906937 241.962162 
L 492.047895 241.70991 
L 493.457476 241.70991 
L 493.739392 241.205405 
L 498.109091 241.205405 
L 498.109091 241.205405 
" style="fill:none;stroke:#2ca02c;stroke-linecap:square;stroke-width:1.5;"/>
   </g>
   <g id="patch_3">
    <path d="M 72 320.4 
L 72 43.2 
" style="fill:none;stroke:#000000;stroke-linecap:square;stroke-linejoin:miter;stroke-width:0.8;"/>
   </g>
   <g id="patch_4">
    <path d="M 518.4 320.4 
L 518.4 43.2 
" style="fill:none;stroke:#000000;stroke-linecap:square;stroke-linejoin:miter;stroke-width:0.8;"/>
   </g>
   <g id="patch_5">
    <path d="M 72 320.4 
L 518.4 320.4 
" style="fill:none;stroke:#000000;stroke-linecap:square;stroke-linejoin:miter;stroke-width:0.8;"/>
   </g>
   <g id="patch_6">
    <path d="M 72 43.2 
L 518.4 43.2 
" style="fill:none;stroke:#000000;stroke-linecap:square;stroke-linejoin:miter;stroke-width:0.8;"/>
   </g>
   <g id="text_16">
    <!-- Epidemic Simulation 1000 People, 20% Moving, 200 x 200 Grid -->
    <defs>
     <path d="M 9.8125 72.90625 
L 55.90625 72.90625 
L 55.90625 64.59375 
L 19.671875 64.59375 
L 19.671875 43.015625 
L 54.390625 43.015625 
L 54.390625 34.71875 
L 19.671875 34.71875 
L 19.671875 8.296875 
L 56.78125 8.296875 
L 56.78125 0 
L 9.8125 0 
z
" id="DejaVuSans-69"/>
     <path d="M 9.421875 54.6875 
L 18.40625 54.6875 
L 18.40625 0 
L 9.421875 0 
z
M 9.421875 75.984375 
L 18.40625 75.984375 
L 18.40625 64.59375 
L 9.421875 64.59375 
z
" id="DejaVuSans-105"/>
     <path d="M 45.40625 46.390625 
L 45.40625 75.984375 
L 54.390625 75.984375 
L 54.390625 0 
L 45.40625 0 
L 45.40625 8.203125 
Q 42.578125 3.328125 38.25 0.953125 
Q 33.9375 -1.421875 27.875 -1.421875 
Q 17.96875 -1.421875 11.734375 6.484375 
Q 5.515625 14.40625 5.515625 27.296875 
Q 5.515625 40.1875 11.734375 48.09375 
Q 17.96875 56 27.875 56 
Q 33.9375 56 38.25 53.625 
Q 42.578125 51.265625 45.40625 46.390625 
z
M 14.796875 27.296875 
Q 14.796875 17.390625 18.875 11.75 
Q 22.953125 6.109375 30.078125 6.109375 
Q 37.203125 6.109375 41.296875 11.75 
Q 45.40625 17.390625 45.40625 27.296875 
Q 45.40625 37.203125 41.296875 42.84375 
Q 37.203125 48.484375 30.078125 48.484375 
Q 22.953125 48.484375 18.875 42.84375 
Q 14.796875 37.203125 14.796875 27.296875 
z
" id="DejaVuSans-100"/>
     <path d="M 48.78125 52.59375 
L 48.78125 44.1875 
Q 44.96875 46.296875 41.140625 47.34375 
Q 37.3125 48.390625 33.40625 48.390625 
Q 24.65625 48.390625 19.8125 42.84375 
Q 14.984375 37.3125 14.984375 27.296875 
Q 14.984375 17.28125 19.8125 11.734375 
Q 24.65625 6.203125 33.40625 6.203125 
Q 37.3125 6.203125 41.140625 7.25 
Q 44.96875 8.296875 48.78125 10.40625 
L 48.78125 2.09375 
Q 45.015625 0.34375 40.984375 -0.53125 
Q 36.96875 -1.421875 32.421875 -1.421875 
Q 20.0625 -1.421875 12.78125 6.34375 
Q 5.515625 14.109375 5.515625 27.296875 
Q 5.515625 40.671875 12.859375 48.328125 
Q 20.21875 56 33.015625 56 
Q 37.15625 56 41.109375 55.140625 
Q 45.0625 54.296875 48.78125 52.59375 
z
" id="DejaVuSans-99"/>
     <path d="M 53.515625 70.515625 
L 53.515625 60.890625 
Q 47.90625 63.578125 42.921875 64.890625 
Q 37.9375 66.21875 33.296875 66.21875 
Q 25.25 66.21875 20.875 63.09375 
Q 16.5 59.96875 16.5 54.203125 
Q 16.5 49.359375 19.40625 46.890625 
Q 22.3125 44.4375 30.421875 42.921875 
L 36.375 41.703125 
Q 47.40625 39.59375 52.65625 34.296875 
Q 57.90625 29 57.90625 20.125 
Q 57.90625 9.515625 50.796875 4.046875 
Q 43.703125 -1.421875 29.984375 -1.421875 
Q 24.8125 -1.421875 18.96875 -0.25 
Q 13.140625 0.921875 6.890625 3.21875 
L 6.890625 13.375 
Q 12.890625 10.015625 18.65625 8.296875 
Q 24.421875 6.59375 29.984375 6.59375 
Q 38.421875 6.59375 43.015625 9.90625 
Q 47.609375 13.234375 47.609375 19.390625 
Q 47.609375 24.75 44.3125 27.78125 
Q 41.015625 30.8125 33.5 32.328125 
L 27.484375 33.5 
Q 16.453125 35.6875 11.515625 40.375 
Q 6.59375 45.0625 6.59375 53.421875 
Q 6.59375 63.09375 13.40625 68.65625 
Q 20.21875 74.21875 32.171875 74.21875 
Q 37.3125 74.21875 42.625 73.28125 
Q 47.953125 72.359375 53.515625 70.515625 
z
" id="DejaVuSans-83"/>
     <path d="M 18.3125 70.21875 
L 18.3125 54.6875 
L 36.8125 54.6875 
L 36.8125 47.703125 
L 18.3125 47.703125 
L 18.3125 18.015625 
Q 18.3125 11.328125 20.140625 9.421875 
Q 21.96875 7.515625 27.59375 7.515625 
L 36.8125 7.515625 
L 36.8125 0 
L 27.59375 0 
Q 17.1875 0 13.234375 3.875 
Q 9.28125 7.765625 9.28125 18.015625 
L 9.28125 47.703125 
L 2.6875 47.703125 
L 2.6875 54.6875 
L 9.28125 54.6875 
L 9.28125 70.21875 
z
" id="DejaVuSans-116"/>
     <path d="M 54.890625 33.015625 
L 54.890625 0 
L 45.90625 0 
L 45.90625 32.71875 
Q 45.90625 40.484375 42.875 44.328125 
Q 39.84375 48.1875 33.796875 48.1875 
Q 26.515625 48.1875 22.3125 43.546875 
Q 18.109375 38.921875 18.109375 30.90625 
L 18.109375 0 
L 9.078125 0 
L 9.078125 54.6875 
L 18.109375 54.6875 
L 18.109375 46.1875 
Q 21.34375 51.125 25.703125 53.5625 
Q 30.078125 56 35.796875 56 
Q 45.21875 56 50.046875 50.171875 
Q 54.890625 44.34375 54.890625 33.015625 
z
" id="DejaVuSans-110"/>
     <path d="M 11.71875 12.40625 
L 22.015625 12.40625 
L 22.015625 4 
L 14.015625 -11.625 
L 7.71875 -11.625 
L 11.71875 4 
z
" id="DejaVuSans-44"/>
     <path d="M 72.703125 32.078125 
Q 68.453125 32.078125 66.03125 28.46875 
Q 63.625 24.859375 63.625 18.40625 
Q 63.625 12.0625 66.03125 8.421875 
Q 68.453125 4.78125 72.703125 4.78125 
Q 76.859375 4.78125 79.265625 8.421875 
Q 81.6875 12.0625 81.6875 18.40625 
Q 81.6875 24.8125 79.265625 28.4375 
Q 76.859375 32.078125 72.703125 32.078125 
z
M 72.703125 38.28125 
Q 80.421875 38.28125 84.953125 32.90625 
Q 89.5 27.546875 89.5 18.40625 
Q 89.5 9.28125 84.9375 3.921875 
Q 80.375 -1.421875 72.703125 -1.421875 
Q 64.890625 -1.421875 60.34375 3.921875 
Q 55.8125 9.28125 55.8125 18.40625 
Q 55.8125 27.59375 60.375 32.9375 
Q 64.9375 38.28125 72.703125 38.28125 
z
M 22.3125 68.015625 
Q 18.109375 68.015625 15.6875 64.375 
Q 13.28125 60.75 13.28125 54.390625 
Q 13.28125 47.953125 15.671875 44.328125 
Q 18.0625 40.71875 22.3125 40.71875 
Q 26.5625 40.71875 28.96875 44.328125 
Q 31.390625 47.953125 31.390625 54.390625 
Q 31.390625 60.6875 28.953125 64.34375 
Q 26.515625 68.015625 22.3125 68.015625 
z
M 66.40625 74.21875 
L 74.21875 74.21875 
L 28.609375 -1.421875 
L 20.796875 -1.421875 
z
M 22.3125 74.21875 
Q 30.03125 74.21875 34.609375 68.875 
Q 39.203125 63.53125 39.203125 54.390625 
Q 39.203125 45.171875 34.640625 39.84375 
Q 30.078125 34.515625 22.3125 34.515625 
Q 14.546875 34.515625 10.03125 39.859375 
Q 5.515625 45.21875 5.515625 54.390625 
Q 5.515625 63.484375 10.046875 68.84375 
Q 14.59375 74.21875 22.3125 74.21875 
z
" id="DejaVuSans-37"/>
     <path d="M 9.8125 72.90625 
L 24.515625 72.90625 
L 43.109375 23.296875 
L 61.8125 72.90625 
L 76.515625 72.90625 
L 76.515625 0 
L 66.890625 0 
L 66.890625 64.015625 
L 48.09375 14.015625 
L 38.1875 14.015625 
L 19.390625 64.015625 
L 19.390625 0 
L 9.8125 0 
z
" id="DejaVuSans-77"/>
     <path d="M 2.984375 54.6875 
L 12.5 54.6875 
L 29.59375 8.796875 
L 46.6875 54.6875 
L 56.203125 54.6875 
L 35.6875 0 
L 23.484375 0 
z
" id="DejaVuSans-118"/>
     <path d="M 45.40625 27.984375 
Q 45.40625 37.75 41.375 43.109375 
Q 37.359375 48.484375 30.078125 48.484375 
Q 22.859375 48.484375 18.828125 43.109375 
Q 14.796875 37.75 14.796875 27.984375 
Q 14.796875 18.265625 18.828125 12.890625 
Q 22.859375 7.515625 30.078125 7.515625 
Q 37.359375 7.515625 41.375 12.890625 
Q 45.40625 18.265625 45.40625 27.984375 
z
M 54.390625 6.78125 
Q 54.390625 -7.171875 48.1875 -13.984375 
Q 42 -20.796875 29.203125 -20.796875 
Q 24.46875 -20.796875 20.265625 -20.09375 
Q 16.0625 -19.390625 12.109375 -17.921875 
L 12.109375 -9.1875 
Q 16.0625 -11.328125 19.921875 -12.34375 
Q 23.78125 -13.375 27.78125 -13.375 
Q 36.625 -13.375 41.015625 -8.765625 
Q 45.40625 -4.15625 45.40625 5.171875 
L 45.40625 9.625 
Q 42.625 4.78125 38.28125 2.390625 
Q 33.9375 0 27.875 0 
Q 17.828125 0 11.671875 7.65625 
Q 5.515625 15.328125 5.515625 27.984375 
Q 5.515625 40.671875 11.671875 48.328125 
Q 17.828125 56 27.875 56 
Q 33.9375 56 38.28125 53.609375 
Q 42.625 51.21875 45.40625 46.390625 
L 45.40625 54.6875 
L 54.390625 54.6875 
z
" id="DejaVuSans-103"/>
     <path d="M 54.890625 54.6875 
L 35.109375 28.078125 
L 55.90625 0 
L 45.3125 0 
L 29.390625 21.484375 
L 13.484375 0 
L 2.875 0 
L 24.125 28.609375 
L 4.6875 54.6875 
L 15.28125 54.6875 
L 29.78125 35.203125 
L 44.28125 54.6875 
z
" id="DejaVuSans-120"/>
     <path d="M 59.515625 10.40625 
L 59.515625 29.984375 
L 43.40625 29.984375 
L 43.40625 38.09375 
L 69.28125 38.09375 
L 69.28125 6.78125 
Q 63.578125 2.734375 56.6875 0.65625 
Q 49.8125 -1.421875 42 -1.421875 
Q 24.90625 -1.421875 15.25 8.5625 
Q 5.609375 18.5625 5.609375 36.375 
Q 5.609375 54.25 15.25 64.234375 
Q 24.90625 74.21875 42 74.21875 
Q 49.125 74.21875 55.546875 72.453125 
Q 61.96875 70.703125 67.390625 67.28125 
L 67.390625 56.78125 
Q 61.921875 61.421875 55.765625 63.765625 
Q 49.609375 66.109375 42.828125 66.109375 
Q 29.4375 66.109375 22.71875 58.640625 
Q 16.015625 51.171875 16.015625 36.375 
Q 16.015625 21.625 22.71875 14.15625 
Q 29.4375 6.6875 42.828125 6.6875 
Q 48.046875 6.6875 52.140625 7.59375 
Q 56.25 8.5 59.515625 10.40625 
z
" id="DejaVuSans-71"/>
    </defs>
    <g transform="translate(105.209062 37.2)scale(0.12 -0.12)">
     <use xlink:href="#DejaVuSans-69"/>
     <use x="63.183594" xlink:href="#DejaVuSans-112"/>
     <use x="126.660156" xlink:href="#DejaVuSans-105"/>
     <use x="154.443359" xlink:href="#DejaVuSans-100"/>
     <use x="217.919922" xlink:href="#DejaVuSans-101"/>
     <use x="279.443359" xlink:href="#DejaVuSans-109"/>
     <use x="376.855469" xlink:href="#DejaVuSans-105"/>
     <use x="404.638672" xlink:href="#DejaVuSans-99"/>
     <use x="459.619141" xlink:href="#DejaVuSans-32"/>
     <use x="491.40625" xlink:href="#DejaVuSans-83"/>
     <use x="554.882812" xlink:href="#DejaVuSans-105"/>
     <use x="582.666016" xlink:href="#DejaVuSans-109"/>
     <use x="680.078125" xlink:href="#DejaVuSans-117"/>
     <use x="743.457031" xlink:href="#DejaVuSans-108"/>
     <use x="771.240234" xlink:href="#DejaVuSans-97"/>
     <use x="832.519531" xlink:href="#DejaVuSans-116"/>
     <use x="871.728516" xlink:href="#DejaVuSans-105"/>
     <use x="899.511719" xlink:href="#DejaVuSans-111"/>
     <use x="960.693359" xlink:href="#DejaVuSans-110"/>
     <use x="1024.072266" xlink:href="#DejaVuSans-32"/>
     <use x="1055.859375" xlink:href="#DejaVuSans-49"/>
     <use x="1119.482422" xlink:href="#DejaVuSans-48"/>
     <use x="1183.105469" xlink:href="#DejaVuSans-48"/>
     <use x="1246.728516" xlink:href="#DejaVuSans-48"/>
     <use x="1310.351562" xlink:href="#DejaVuSans-32"/>
     <use x="1342.138672" xlink:href="#DejaVuSans-80"/>
     <use x="1402.394531" xlink:href="#DejaVuSans-101"/>
     <use x="1463.917969" xlink:href="#DejaVuSans-111"/>
     <use x="1525.099609" xlink:href="#DejaVuSans-112"/>
     <use x="1588.576172" xlink:href="#DejaVuSans-108"/>
     <use x="1616.359375" xlink:href="#DejaVuSans-101"/>
     <use x="1677.882812" xlink:href="#DejaVuSans-44"/>
     <use x="1709.669922" xlink:href="#DejaVuSans-32"/>
     <use x="1741.457031" xlink:href="#DejaVuSans-50"/>
     <use x="1805.080078" xlink:href="#DejaVuSans-48"/>
     <use x="1868.703125" xlink:href="#DejaVuSans-37"/>
     <use x="1963.722656" xlink:href="#DejaVuSans-32"/>
     <use x="1995.509766" xlink:href="#DejaVuSans-77"/>
     <use x="2081.789062" xlink:href="#DejaVuSans-111"/>
     <use x="2142.970703" xlink:href="#DejaVuSans-118"/>
     <use x="2202.150391" xlink:href="#DejaVuSans-105"/>
     <use x="2229.933594" xlink:href="#DejaVuSans-110"/>
     <use x="2293.3125" xlink:href="#DejaVuSans-103"/>
     <use x="2356.789062" xlink:href="#DejaVuSans-44"/>
     <use x="2388.576172" xlink:href="#DejaVuSans-32"/>
     <use x="2420.363281" xlink:href="#DejaVuSans-50"/>
     <use x="2483.986328" xlink:href="#DejaVuSans-48"/>
     <use x="2547.609375" xlink:href="#DejaVuSans-48"/>
     <use x="2611.232422" xlink:href="#DejaVuSans-32"/>
     <use x="2643.019531" xlink:href="#DejaVuSans-120"/>
     <use x="2702.199219" xlink:href="#DejaVuSans-32"/>
     <use x="2733.986328" xlink:href="#DejaVuSans-50"/>
     <use x="2797.609375" xlink:href="#DejaVuSans-48"/>
     <use x="2861.232422" xlink:href="#DejaVuSans-48"/>
     <use x="2924.855469" xlink:href="#DejaVuSans-32"/>
     <use x="2956.642578" xlink:href="#DejaVuSans-71"/>
     <use x="3034.132812" xlink:href="#DejaVuSans-114"/>
     <use x="3075.246094" xlink:href="#DejaVuSans-105"/>
     <use x="3103.029297" xlink:href="#DejaVuSans-100"/>
    </g>
   </g>
   <g id="legend_1">
    <g id="patch_7">
     <path d="M 425.034375 95.234375 
L 511.4 95.234375 
Q 513.4 95.234375 513.4 93.234375 
L 513.4 50.2 
Q 513.4 48.2 511.4 48.2 
L 425.034375 48.2 
Q 423.034375 48.2 423.034375 50.2 
L 423.034375 93.234375 
Q 423.034375 95.234375 425.034375 95.234375 
z
" style="fill:#ffffff;opacity:0.8;stroke:#cccccc;stroke-linejoin:miter;"/>
    </g>
    <g id="line2d_17">
     <path d="M 427.034375 56.298437 
L 447.034375 56.298437 
" style="fill:none;stroke:#1f77b4;stroke-linecap:square;stroke-width:1.5;"/>
    </g>
    <g id="line2d_18"/>
    <g id="text_17">
     <!-- Uninfected -->
     <defs>
      <path d="M 8.6875 72.90625 
L 18.609375 72.90625 
L 18.609375 28.609375 
Q 18.609375 16.890625 22.84375 11.734375 
Q 27.09375 6.59375 36.625 6.59375 
Q 46.09375 6.59375 50.34375 11.734375 
Q 54.59375 16.890625 54.59375 28.609375 
L 54.59375 72.90625 
L 64.5 72.90625 
L 64.5 27.390625 
Q 64.5 13.140625 57.4375 5.859375 
Q 50.390625 -1.421875 36.625 -1.421875 
Q 22.796875 -1.421875 15.734375 5.859375 
Q 8.6875 13.140625 8.6875 27.390625 
z
" id="DejaVuSans-85"/>
     </defs>
     <g transform="translate(455.034375 59.798437)scale(0.1 -0.1)">
      <use xlink:href="#DejaVuSans-85"/>
      <use x="73.193359" xlink:href="#DejaVuSans-110"/>
      <use x="136.572266" xlink:href="#DejaVuSans-105"/>
      <use x="164.355469" xlink:href="#DejaVuSans-110"/>
      <use x="227.734375" xlink:href="#DejaVuSans-102"/>
      <use x="262.939453" xlink:href="#DejaVuSans-101"/>
      <use x="324.462891" xlink:href="#DejaVuSans-99"/>
      <use x="379.443359" xlink:href="#DejaVuSans-116"/>
      <use x="418.652344" xlink:href="#DejaVuSans-101"/>
      <use x="480.175781" xlink:href="#DejaVuSans-100"/>
     </g>
    </g>
    <g id="line2d_19">
     <path d="M 427.034375 70.976562 
L 447.034375 70.976562 
" style="fill:none;stroke:#ff7f0e;stroke-linecap:square;stroke-width:1.5;"/>
    </g>
    <g id="line2d_20"/>
    <g id="text_18">
     <!-- Infected -->
     <defs>
      <path d="M 9.8125 72.90625 
L 19.671875 72.90625 
L 19.671875 0 
L 9.8125 0 
z
" id="DejaVuSans-73"/>
     </defs>
     <g transform="translate(455.034375 74.476562)scale(0.1 -0.1)">
      <use xlink:href="#DejaVuSans-73"/>
      <use x="29.492188" xlink:href="#DejaVuSans-110"/>
      <use x="92.871094" xlink:href="#DejaVuSans-102"/>
      <use x="128.076172" xlink:href="#DejaVuSans-101"/>
      <use x="189.599609" xlink:href="#DejaVuSans-99"/>
      <use x="244.580078" xlink:href="#DejaVuSans-116"/>
      <use x="283.789062" xlink:href="#DejaVuSans-101"/>
      <use x="345.3125" xlink:href="#DejaVuSans-100"/>
     </g>
    </g>
    <g id="line2d_21">
     <path d="M 427.034375 85.654687 
L 447.034375 85.654687 
" style="fill:none;stroke:#2ca02c;stroke-linecap:square;stroke-width:1.5;"/>
    </g>
    <g id="line2d_22"/>
    <g id="text_19">
     <!-- Recovered -->
     <defs>
      <path d="M 44.390625 34.1875 
Q 47.5625 33.109375 50.5625 29.59375 
Q 53.5625 26.078125 56.59375 19.921875 
L 66.609375 0 
L 56 0 
L 46.6875 18.703125 
Q 43.0625 26.03125 39.671875 28.421875 
Q 36.28125 30.8125 30.421875 30.8125 
L 19.671875 30.8125 
L 19.671875 0 
L 9.8125 0 
L 9.8125 72.90625 
L 32.078125 72.90625 
Q 44.578125 72.90625 50.734375 67.671875 
Q 56.890625 62.453125 56.890625 51.90625 
Q 56.890625 45.015625 53.6875 40.46875 
Q 50.484375 35.9375 44.390625 34.1875 
z
M 19.671875 64.796875 
L 19.671875 38.921875 
L 32.078125 38.921875 
Q 39.203125 38.921875 42.84375 42.21875 
Q 46.484375 45.515625 46.484375 51.90625 
Q 46.484375 58.296875 42.84375 61.546875 
Q 39.203125 64.796875 32.078125 64.796875 
z
" id="DejaVuSans-82"/>
     </defs>
     <g transform="translate(455.034375 89.154687)scale(0.1 -0.1)">
      <use xlink:href="#DejaVuSans-82"/>
      <use x="69.419922" xlink:href="#DejaVuSans-101"/>
      <use x="130.943359" xlink:href="#DejaVuSans-99"/>
      <use x="185.923828" xlink:href="#DejaVuSans-111"/>
      <use x="247.105469" xlink:href="#DejaVuSans-118"/>
      <use x="306.285156" xlink:href="#DejaVuSans-101"/>
      <use x="367.808594" xlink:href="#DejaVuSans-114"/>
      <use x="408.890625" xlink:href="#DejaVuSans-101"/>
      <use x="470.414062" xlink:href="#DejaVuSans-100"/>
     </g>
    </g>
   </g>
  </g>
 </g>
 <defs>
  <clipPath id="p72643eff56">
   <rect height="277.2" width="446.4" x="72" y="43.2"/>
  </clipPath>
 </defs>
</svg>
